<?xml version="1.0" encoding="utf-8"?>
<!-- Generator: Adobe Illustrator 26.0.0, SVG Export Plug-In . SVG Version: 6.00 Build 0)  -->
<svg version="1.1" id="Layer_1" xmlns="http://www.w3.org/2000/svg" xmlns:xlink="http://www.w3.org/1999/xlink" x="0px" y="0px"
	 width="600px" height="600px" viewBox="0 0 600 600" style="enable-background:new 0 0 600 600;" xml:space="preserve">
<style type="text/css">
	.st0{fill:#FFFFFF;}
	.st1{fill:#32E4B6;}
</style>
<g>
	<g>
		<rect x="298.7" y="271.9" class="st0" width="2.8" height="50.2"/>
	</g>
	<g>
		<path class="st0" d="M366.6,322.1h-2.8v-7.8c0-8.5-6.9-15.4-15.4-15.4h-31.4c-10,0-18.2-8.2-18.2-18.2v-8.7h2.8v8.7
			c0,8.5,6.9,15.4,15.4,15.4h31.4c10,0,18.2,8.2,18.2,18.2V322.1z"/>
	</g>
	<g>
		<path class="st0" d="M236.6,322.1h-2.8v-7.8c0-10.1,8.2-18.2,18.2-18.2h31.4c8.5,0,15.4-6.9,15.4-15.4v-8.7h2.8v8.7
			c0,10.1-8.2,18.2-18.2,18.2h-31.4c-8.5,0-15.4,6.9-15.4,15.4V322.1z"/>
	</g>
	<g>
		<g>
			<path class="st1" d="M300.2,367.7c-13,0-23.5-10.5-23.5-23.5s10.5-23.5,23.5-23.5s23.5,10.5,23.5,23.5S313.1,367.7,300.2,367.7z
				 M300.2,323.5c-11.4,0-20.7,9.3-20.7,20.7s9.3,20.7,20.7,20.7c11.4,0,20.7-9.3,20.7-20.7S311.6,323.5,300.2,323.5z"/>
		</g>
		<g>
			<path class="st0" d="M300.2,362.1c-9.9,0-18-8.1-18-18s8.1-18,18-18s18,8.1,18,18S310.1,362.1,300.2,362.1z M300.2,329
				c-8.3,0-15.1,6.8-15.1,15.1s6.8,15.1,15.1,15.1c8.3,0,15.1-6.8,15.1-15.1S308.5,329,300.2,329z"/>
		</g>
		<g>
			<path class="st0" d="M300.2,354.9l-10.7-10.7l10.7-10.7l10.7,10.7L300.2,354.9z M293.4,344.1l6.7,6.7l6.7-6.7l-6.7-6.7
				L293.4,344.1z"/>
		</g>
	</g>
	<g>
		<g>
			<path class="st1" d="M365.1,367.7c-13,0-23.5-10.5-23.5-23.5s10.5-23.5,23.5-23.5s23.5,10.5,23.5,23.5S378.1,367.7,365.1,367.7z
				 M365.1,323.5c-11.4,0-20.7,9.3-20.7,20.7s9.3,20.7,20.7,20.7c11.4,0,20.7-9.3,20.7-20.7S376.5,323.5,365.1,323.5z"/>
		</g>
		<g>
			<path class="st0" d="M365.1,362.1c-9.9,0-18-8.1-18-18s8.1-18,18-18c9.9,0,18,8.1,18,18S375,362.1,365.1,362.1z M365.1,329
				c-8.3,0-15.1,6.8-15.1,15.1s6.8,15.1,15.1,15.1c8.3,0,15.1-6.8,15.1-15.1S373.5,329,365.1,329z"/>
		</g>
		<g>
			<path class="st0" d="M365.1,354.9l-10.7-10.7l10.7-10.7l10.7,10.7L365.1,354.9z M358.4,344.1l6.7,6.7l6.7-6.7l-6.7-6.7
				L358.4,344.1z"/>
		</g>
	</g>
	<g>
		<g>
			<path class="st1" d="M235.2,367.7c-13,0-23.5-10.5-23.5-23.5s10.5-23.5,23.5-23.5c13,0,23.5,10.5,23.5,23.5
				S248.1,367.7,235.2,367.7z M235.2,323.5c-11.4,0-20.7,9.3-20.7,20.7s9.3,20.7,20.7,20.7c11.4,0,20.7-9.3,20.7-20.7
				S246.6,323.5,235.2,323.5z"/>
		</g>
		<g>
			<path class="st0" d="M235.2,362.1c-9.9,0-18-8.1-18-18s8.1-18,18-18s18,8.1,18,18S245.1,362.1,235.2,362.1z M235.2,329
				c-8.3,0-15.1,6.8-15.1,15.1s6.8,15.1,15.1,15.1c8.3,0,15.1-6.8,15.1-15.1S243.5,329,235.2,329z"/>
		</g>
		<g>
			<path class="st0" d="M235.2,354.9l-10.7-10.7l10.7-10.7l10.7,10.7L235.2,354.9z M228.5,344.1l6.7,6.7l6.7-6.7l-6.7-6.7
				L228.5,344.1z"/>
		</g>
	</g>
	<g>
		<g>
			<path class="st1" d="M336.3,273.3H264V236h72.2V273.3z M266.9,270.4h66.5v-31.6h-66.5V270.4z"/>
		</g>
		<g>
			<path class="st0" d="M300.2,261.5c-3.7,0-6.8-3-6.8-6.8c0-3.7,3-6.8,6.8-6.8s6.8,3,6.8,6.8C306.9,258.4,303.9,261.5,300.2,261.5z
				 M300.2,250.7c-2.2,0-4,1.8-4,4c0,2.2,1.8,4,4,4s4-1.8,4-4C304.1,252.5,302.3,250.7,300.2,250.7z"/>
		</g>
		<g>
			<path class="st0" d="M326.1,267.6h-51.9v-1.4c0-1.7-1.4-3.1-3.1-3.1h-1.4v-16.8h1.4c1.7,0,3.1-1.4,3.1-3.1v-1.4h51.9v1.4
				c0,1.7,1.4,3.1,3.1,3.1h1.4V263h-1.4c-1.7,0-3.1,1.4-3.1,3.1V267.6z M276.9,264.8h46.5c0.5-2.1,2.2-3.8,4.3-4.4v-11.5
				c-2.1-0.5-3.8-2.2-4.3-4.4h-46.5c-0.5,2.1-2.2,3.8-4.3,4.4v11.5C274.7,260.9,276.4,262.6,276.9,264.8z"/>
		</g>
		<g>
			<polygon class="st1" points="342.3,267.2 334.8,267.2 334.8,264.4 339.5,264.4 339.5,232.8 272.9,232.8 272.9,237.5 270.1,237.5 
				270.1,230 342.3,230 			"/>
		</g>
	</g>
</g>
</svg>
