<?xml version="1.0" encoding="utf-8"?>
<!-- Generator: Adobe Illustrator 26.0.0, SVG Export Plug-In . SVG Version: 6.00 Build 0)  -->
<svg version="1.1" id="Layer_1" xmlns="http://www.w3.org/2000/svg" xmlns:xlink="http://www.w3.org/1999/xlink" x="0px" y="0px"
	 width="600px" height="600px" viewBox="0 0 600 600" style="enable-background:new 0 0 600 600;" xml:space="preserve">
<style type="text/css">
	.st0{fill:#FFFFFF;}
	.st1{fill:#32E4B6;}
</style>
<g>
	<g>
		<path class="st0" d="M298.2,338c-0.1,0-0.2,0-0.3,0l-6.5-1.6c-0.4-0.1-0.7-0.3-0.9-0.6c-0.2-0.3-0.3-0.7-0.2-1.1l2.3-9.2
			c-0.8-0.2-1.6-0.4-2.4-0.6l-2.3,9.2c-0.1,0.4-0.3,0.7-0.6,0.9c-0.3,0.2-0.7,0.3-1.1,0.2l-6.5-1.6c-0.8-0.2-1.2-1-1-1.7l2.3-9.4
			l-0.6-0.1c-0.9-0.2-1.8-0.5-2.7-0.7l-8.4-2.1c-0.4-0.1-0.7-0.4-0.9-0.7c-0.2-0.4-0.2-0.8,0-1.2l3.2-7.4c0.3-0.6,1-1,1.7-0.8
			c1.8,0.5,3.9,1,4.4,1.1c0.1,0,0.2,0,0.3,0c0.5,0.1,0.9,0.2,1.3-0.6l7.2-28.9c0-1.2-0.6-1.8-1.9-2.2c-0.1,0-0.2-0.1-0.3-0.1
			c-0.5-0.2-2.6-0.6-4.4-1.1c-0.4-0.1-0.7-0.3-0.9-0.6c-0.2-0.3-0.3-0.7-0.2-1.1l1.7-6.9c0.1-0.4,0.3-0.7,0.6-0.9s0.7-0.3,1.1-0.2
			l8.9,2.2c0.1,0,0.2,0.1,0.3,0.1c0.8,0.2,1.6,0.4,2.5,0.6l2.3-9.3c0.2-0.8,1-1.2,1.7-1l6.5,1.6c0.8,0.2,1.2,1,1,1.7l-2.2,9
			c0.8,0.2,1.6,0.4,2.4,0.6l2.2-9c0.1-0.4,0.3-0.7,0.6-0.9s0.7-0.2,1.1-0.2l6.5,1.6c0.8,0.2,1.2,1,1,1.7l-2.3,9.4
			c14.1,5.3,13.1,13.1,12.7,15.9c0,0,0,0.1,0,0.1c-0.7,4.6-2.9,7.9-6.4,9.6c5.1,3.7,6.4,8.9,4,15.8c-3.9,11.3-13.7,11.5-23.1,9.9
			l-2.4,9.4C299.4,337.5,298.8,338,298.2,338z M293.4,333.9l3.7,0.9l2.3-9.4c0.2-0.7,0.9-1.2,1.6-1c12.5,2.4,18.4,0.2,21.2-7.8
			c2.3-6.6,0.7-10.9-5.3-14c-0.5-0.3-0.8-0.8-0.8-1.4c0.1-0.6,0.5-1.1,1.1-1.2c4.1-0.9,6.5-3.6,7.2-8.2c0,0,0-0.1,0-0.1
			c0.9-6-2.8-10.2-12-13.3c-0.7-0.2-1.1-1-0.9-1.7l2.3-9.3l-3.7-0.9l-2.2,9c-0.1,0.4-0.3,0.7-0.6,0.9c-0.3,0.2-0.7,0.3-1.1,0.2
			c-1.7-0.4-3.4-0.8-5.2-1.2c-0.4-0.1-0.7-0.3-0.9-0.6c-0.2-0.3-0.3-0.7-0.2-1.1l2.3-9l-3.7-0.9l-2.3,9.2c-0.2,0.7-0.9,1.2-1.7,1
			c-1.4-0.3-2.8-0.6-4.2-1c-0.1,0-0.2-0.1-0.3-0.1l-7.2-1.8l-1,4.1c1.7,0.4,2.7,0.6,3.3,0.9l0,0c2.7,0.7,4.2,2.6,4.1,5.2
			c0,0.1,0,0.2,0,0.3l-7.3,29.1c0,0.1,0,0.1-0.1,0.2c-0.8,2-2.6,2.9-4.6,2.4l0,0c-0.7-0.1-1.8-0.4-3.5-0.9l-2.1,4.8l6.8,1.7
			c0.9,0.2,1.8,0.5,2.7,0.7l1.9,0.5c0.8,0.2,1.2,1,1,1.7l-2.3,9.4l3.7,0.9l2.3-9.3c0.1-0.4,0.3-0.7,0.7-0.9s0.7-0.2,1.1-0.1
			c1.8,0.5,3.5,0.9,5.1,1.3c0.4,0.1,0.7,0.3,0.9,0.6s0.3,0.7,0.2,1.1L293.4,333.9z M303.2,318.8c-4,0-8.3-1.1-11-1.9
			c-0.5-0.1-0.9-0.2-1.2-0.3c-0.4-0.1-0.7-0.3-0.9-0.6s-0.3-0.7-0.2-1.1l3.6-14.2c0.1-0.4,0.3-0.7,0.6-0.9c0.3-0.2,0.7-0.3,1.1-0.2
			c0.4,0.1,1,0.2,1.6,0.4c4.6,1,12.2,2.7,15,7.3c1.1,1.7,1.3,3.6,0.8,5.7l0,0c-0.5,2-1.6,3.5-3.3,4.5
			C307.6,318.4,305.5,318.8,303.2,318.8z M293,314.2c3.7,1,11.2,2.9,14.9,0.8c1-0.6,1.6-1.5,2-2.7c0,0,0,0,0,0
			c0.3-1.3,0.2-2.5-0.5-3.5c-2.2-3.6-9.4-5.2-13.2-6c-0.1,0-0.2,0-0.2-0.1L293,314.2z M306.1,297.6c-3.3,0-6.7-0.9-9-1.5
			c-0.4-0.1-0.7-0.2-1-0.3c-0.8-0.2-1.2-1-1-1.7l3.2-12.9c0.1-0.4,0.3-0.7,0.6-0.9c0.3-0.2,0.7-0.2,1.1-0.2c0.4,0.1,0.8,0.2,1.3,0.3
			c3.8,0.8,10,2.2,12.5,6.2c1,1.6,1.2,3.4,0.7,5.4h0c-0.5,1.9-1.5,3.3-3.1,4.3C309.9,297.3,308.1,297.6,306.1,297.6z M298.2,293.5
			c3,0.8,8.8,2.3,11.8,0.5c0.9-0.5,1.5-1.4,1.8-2.5l0,0c0.3-1.3,0.2-2.3-0.4-3.3c-1.8-3-7.6-4.2-10.7-4.9L298.2,293.5z M313.2,291.8
			L313.2,291.8L313.2,291.8z"/>
	</g>
	<g>
		<path class="st1" d="M300,364c-35.3,0-64-28.7-64-64s28.7-64,64-64c35.3,0,64,28.7,64,64S335.3,364,300,364z M300,238.8
			c-33.7,0-61.2,27.5-61.2,61.2c0,33.8,27.4,61.2,61.2,61.2s61.2-27.5,61.2-61.2C361.2,266.2,333.7,238.8,300,238.8z"/>
	</g>
	<g>
		<path class="st0" d="M300,355.8c-30.7,0-55.7-25-55.7-55.8c0-30.8,25-55.8,55.7-55.8c30.7,0,55.7,25,55.7,55.8
			C355.7,330.8,330.7,355.8,300,355.8z M300,247c-29.2,0-52.9,23.8-52.9,53s23.7,53,52.9,53s52.9-23.8,52.9-53S329.2,247,300,247z"
			/>
	</g>
</g>
</svg>
