<?xml version="1.0" encoding="utf-8"?>
<!-- Generator: Adobe Illustrator 26.0.0, SVG Export Plug-In . SVG Version: 6.00 Build 0)  -->
<svg version="1.1" id="Layer_1" xmlns="http://www.w3.org/2000/svg" xmlns:xlink="http://www.w3.org/1999/xlink" x="0px" y="0px"
	 width="600px" height="600px" viewBox="0 0 600 600" style="enable-background:new 0 0 600 600;" xml:space="preserve">
<style type="text/css">
	.st0{fill:#32E4B6;}
	.st1{fill:#FFFFFF;}
</style>
<g>
	<g>
		<g>
			<path class="st0" d="M329.2,329.7h-58.1v-8.9h58.1V329.7z M274,326.8h52.4v-3.2H274V326.8z"/>
		</g>
		<g>
			<path class="st0" d="M329.2,301.5h-58.1v-8.9h58.1V301.5z M274,298.7h52.4v-3.2H274V298.7z"/>
		</g>
		<g>
			<rect x="275.2" y="300.1" class="st0" width="2.8" height="22"/>
		</g>
		<g>
			<rect x="321.6" y="300.1" class="st0" width="2.8" height="22"/>
		</g>
		<g>
			<rect x="312.3" y="300.1" class="st0" width="2.8" height="22"/>
		</g>
		<g>
			<rect x="303.1" y="300.1" class="st0" width="2.8" height="22"/>
		</g>
		<g>
			<rect x="293.8" y="300.1" class="st0" width="2.8" height="22"/>
		</g>
		<g>
			<rect x="284.5" y="300.1" class="st0" width="2.8" height="22"/>
		</g>
		<g>
			<rect x="298.7" y="261.2" class="st0" width="2.8" height="13.8"/>
		</g>
		<g>
			<g>
				<path class="st0" d="M306.3,271.3c-0.9,0-1.8-0.2-2.6-0.5c-1-0.4-2.1-0.4-3,0c-0.4,0.2-0.9,0.1-1.3-0.1s-0.6-0.7-0.6-1.2v-5.4
					c0-0.6,0.3-1.1,0.9-1.3c1.6-0.7,3.5-0.7,5.2,0c1,0.4,2.1,0.4,3,0c0.4-0.2,0.9-0.1,1.3,0.1c0.4,0.3,0.6,0.7,0.6,1.2v5.4
					c0,0.6-0.3,1.1-0.9,1.3C308.1,271.2,307.2,271.3,306.3,271.3z M302.2,267.7c0.9,0,1.8,0.2,2.6,0.5c0.7,0.3,1.4,0.4,2.1,0.2v-2.5
					c-1.1,0.1-2.2-0.1-3.2-0.5c-0.7-0.3-1.4-0.4-2.1-0.2v2.5C301.8,267.7,302,267.7,302.2,267.7z"/>
			</g>
		</g>
		<g>
			<path class="st0" d="M320.3,294.2c-1.2-10.2-9.9-17.8-20.2-17.8s-18.9,7.7-20.2,17.8l-2.8-0.3c1.4-11.6,11.3-20.3,23-20.3
				c11.7,0,21.6,8.7,23,20.3L320.3,294.2z"/>
		</g>
	</g>
	<g>
		<g>
			<g>
				<path class="st0" d="M300.2,373.8c-7.2,0-13.1-5.9-13.1-13.1s5.9-13.1,13.1-13.1c7.2,0,13.1,5.9,13.1,13.1
					S307.4,373.8,300.2,373.8z M300.2,350.4c-5.7,0-10.3,4.6-10.3,10.3s4.6,10.3,10.3,10.3s10.3-4.6,10.3-10.3
					S305.8,350.4,300.2,350.4z"/>
			</g>
			<g>
				<path class="st0" d="M300.2,373.8c-4.4,0-7.8-5.8-7.8-13.1s3.4-13.1,7.8-13.1c4.4,0,7.8,5.8,7.8,13.1S304.5,373.8,300.2,373.8z
					 M300.2,350.4c-2.3,0-4.9,4.2-4.9,10.3s2.6,10.3,4.9,10.3s4.9-4.2,4.9-10.3S302.5,350.4,300.2,350.4z"/>
			</g>
			<g>
				<rect x="288.4" y="359.3" class="st0" width="23.4" height="2.8"/>
			</g>
			<g>
				<rect x="298.7" y="349" class="st0" width="2.8" height="23.4"/>
			</g>
		</g>
		<g>
			<g>
				<path class="st0" d="M300.2,250.1c-7.2,0-13.1-5.9-13.1-13.1c0-7.2,5.9-13.1,13.1-13.1c7.2,0,13.1,5.9,13.1,13.1
					C313.3,244.2,307.4,250.1,300.2,250.1z M300.2,226.7c-5.7,0-10.3,4.6-10.3,10.3s4.6,10.3,10.3,10.3s10.3-4.6,10.3-10.3
					S305.8,226.7,300.2,226.7z"/>
			</g>
			<g>
				<path class="st1" d="M300.2,243.7l-6.8-6.7l6.8-6.7l6.8,6.7L300.2,243.7z M297.4,237l2.8,2.7l2.8-2.7l-2.8-2.7L297.4,237z"/>
			</g>
		</g>
	</g>
	<g>
		<g>
			<circle class="st1" cx="268.7" cy="244.4" r="4.3"/>
		</g>
		<g>
			<circle class="st1" cx="331.6" cy="353.2" r="4.3"/>
		</g>
		<g>
			<circle class="st1" cx="245.7" cy="267.4" r="4.3"/>
		</g>
		<g>
			<circle class="st1" cx="354.6" cy="330.2" r="4.3"/>
		</g>
		<g>
			<circle class="st1" cx="237.3" cy="298.8" r="4.3"/>
		</g>
		<g>
			<circle class="st1" cx="363" cy="298.8" r="4.3"/>
		</g>
		<g>
			<circle class="st1" cx="245.7" cy="330.2" r="4.3"/>
		</g>
		<g>
			<circle class="st1" cx="354.6" cy="267.4" r="4.3"/>
		</g>
		<g>
			<circle class="st1" cx="268.7" cy="353.2" r="4.3"/>
		</g>
		<g>
			<circle class="st1" cx="331.6" cy="244.4" r="4.3"/>
		</g>
	</g>
</g>
</svg>
