<?xml version="1.0" encoding="utf-8"?>
<!-- Generator: Adobe Illustrator 26.0.0, SVG Export Plug-In . SVG Version: 6.00 Build 0)  -->
<svg version="1.1" id="Layer_1" xmlns="http://www.w3.org/2000/svg" xmlns:xlink="http://www.w3.org/1999/xlink" x="0px" y="0px"
	 width="600px" height="600px" viewBox="0 0 600 600" style="enable-background:new 0 0 600 600;" xml:space="preserve">
<style type="text/css">
	.st0{fill:#FFFFFF;}
	.st1{fill:#32E4B6;}
</style>
<g>
	<g>
		<g>
			<rect x="298.7" y="243.8" class="st0" width="2.8" height="11.8"/>
		</g>
		<g>
			<rect x="298.7" y="342.1" class="st0" width="2.8" height="11.8"/>
		</g>
		<g>
			
				<rect x="256.2" y="268.3" transform="matrix(0.5003 -0.8659 0.8659 0.5003 -108.7219 360.114)" class="st0" width="2.8" height="11.8"/>
		</g>
		<g>
			
				<rect x="341.3" y="317.5" transform="matrix(0.5003 -0.8659 0.8659 0.5003 -108.7653 458.3392)" class="st0" width="2.8" height="11.8"/>
		</g>
		<g>
			
				<rect x="251.7" y="322" transform="matrix(0.8659 -0.5001 0.5001 0.8659 -127.2074 172.198)" class="st0" width="11.8" height="2.8"/>
		</g>
		<g>
			
				<rect x="336.8" y="272.8" transform="matrix(0.8659 -0.5003 0.5003 0.8659 -91.2345 208.2285)" class="st0" width="11.8" height="2.8"/>
		</g>
		<g>
			
				<rect x="312.5" y="270.3" transform="matrix(0.5009 -0.8655 0.8655 0.5009 -81.2287 408.9435)" class="st0" width="2.8" height="9.2"/>
		</g>
		<g>
			<rect x="326.3" y="294.2" class="st0" width="2.8" height="9.2"/>
		</g>
		<g>
			<rect x="271.1" y="294.2" class="st0" width="2.8" height="9.2"/>
		</g>
		<g>
			
				<rect x="281.8" y="273.5" transform="matrix(0.8655 -0.501 0.501 0.8655 -99.1905 180.4296)" class="st0" width="9.2" height="2.8"/>
		</g>
		<g>
			
				<rect x="284.9" y="318.2" transform="matrix(0.5009 -0.8655 0.8655 0.5009 -136.4165 408.9218)" class="st0" width="2.8" height="9.2"/>
		</g>
		<g>
			
				<rect x="309.4" y="321.3" transform="matrix(0.8655 -0.501 0.501 0.8655 -119.4442 200.6929)" class="st0" width="9.2" height="2.8"/>
		</g>
	</g>
	<g>
		<g>
			<path class="st1" d="M300.2,279.7c-7,0-12.8-5.7-12.8-12.8c0-7,5.7-12.8,12.8-12.8c7,0,12.8,5.7,12.8,12.8
				C312.9,274,307.2,279.7,300.2,279.7z M300.2,257c-5.5,0-9.9,4.5-9.9,9.9c0,5.5,4.5,9.9,9.9,9.9s9.9-4.5,9.9-9.9
				C310.1,261.5,305.6,257,300.2,257z"/>
		</g>
		<g>
			<path class="st1" d="M300.2,343.5c-7,0-12.8-5.7-12.8-12.8s5.7-12.8,12.8-12.8c7,0,12.8,5.7,12.8,12.8S307.2,343.5,300.2,343.5z
				 M300.2,320.8c-5.5,0-9.9,4.5-9.9,9.9s4.5,9.9,9.9,9.9s9.9-4.5,9.9-9.9S305.6,320.8,300.2,320.8z"/>
		</g>
		<g>
			<path class="st1" d="M272.5,295.7c-2.2,0-4.4-0.6-6.4-1.7c-6.1-3.5-8.2-11.4-4.7-17.5c1.7-3,4.5-5.1,7.8-6
				c3.3-0.9,6.7-0.4,9.7,1.3l0,0c6.1,3.5,8.2,11.4,4.7,17.5c-1.7,3-4.5,5.1-7.8,6C274.8,295.5,273.6,295.7,272.5,295.7z
				 M272.6,272.9c-0.9,0-1.7,0.1-2.6,0.3c-2.6,0.7-4.7,2.3-6,4.6c-2.7,4.7-1.1,10.8,3.6,13.6c2.3,1.3,5,1.7,7.5,1
				c2.6-0.7,4.7-2.3,6-4.6c2.7-4.7,1.1-10.8-3.6-13.6l0,0C276,273.4,274.3,272.9,272.6,272.9z"/>
		</g>
		<g>
			<path class="st1" d="M327.7,327.5c-2.2,0-4.4-0.6-6.4-1.7l0,0c-6.1-3.5-8.2-11.4-4.7-17.5c1.7-3,4.5-5.1,7.8-6s6.7-0.4,9.7,1.3
				c6.1,3.5,8.2,11.4,4.7,17.5c-1.7,3-4.5,5.1-7.8,6C329.9,327.4,328.8,327.5,327.7,327.5z M322.8,323.4c2.3,1.3,5,1.7,7.5,1
				c2.6-0.7,4.7-2.3,6-4.6c2.7-4.8,1.1-10.8-3.6-13.6c-2.3-1.3-5-1.7-7.5-1c-2.6,0.7-4.7,2.3-6,4.6
				C316.4,314.5,318,320.6,322.8,323.4L322.8,323.4z"/>
		</g>
		<g>
			<path class="st1" d="M272.6,327.5c-1.1,0-2.2-0.1-3.3-0.4c-3.3-0.9-6-3-7.8-6c-3.5-6.1-1.4-13.9,4.7-17.5l0,0
				c3-1.7,6.4-2.2,9.7-1.3c3.3,0.9,6,3,7.8,6c3.5,6.1,1.4,13.9-4.7,17.5C277,327,274.8,327.5,272.6,327.5z M272.5,304.8
				c-1.7,0-3.4,0.5-5,1.3l0,0c-4.7,2.7-6.4,8.8-3.6,13.6c1.3,2.3,3.5,3.9,6,4.6c2.6,0.7,5.2,0.3,7.5-1c4.7-2.7,6.4-8.8,3.6-13.6
				c-1.3-2.3-3.5-3.9-6-4.6C274.3,304.9,273.4,304.8,272.5,304.8z"/>
		</g>
		<g>
			<path class="st1" d="M327.8,295.7c-1.1,0-2.2-0.1-3.3-0.4c-3.3-0.9-6-3-7.8-6c-3.5-6.1-1.4-13.9,4.7-17.5c3-1.7,6.4-2.2,9.7-1.3
				c3.3,0.9,6,3,7.8,6c3.5,6.1,1.4,13.9-4.7,17.5l0,0C332.2,295.1,330,295.7,327.8,295.7z M327.7,272.9c-1.7,0-3.4,0.5-5,1.3
				c-4.7,2.7-6.4,8.8-3.6,13.6c1.3,2.3,3.5,3.9,6,4.6c2.6,0.7,5.2,0.3,7.5-1c4.7-2.7,6.4-8.8,3.6-13.6c-1.3-2.3-3.5-3.9-6-4.6
				C329.5,273,328.6,272.9,327.7,272.9z"/>
		</g>
		<g>
			<path class="st1" d="M300.2,245.2c-5.6,0-10.2-4.6-10.2-10.2s4.6-10.2,10.2-10.2c5.6,0,10.2,4.6,10.2,10.2
				S305.8,245.2,300.2,245.2z M300.2,227.7c-4,0-7.3,3.3-7.3,7.3s3.3,7.3,7.3,7.3c4,0,7.3-3.3,7.3-7.3S304.2,227.7,300.2,227.7z"/>
		</g>
		<g>
			<path class="st1" d="M244.9,277.1c-1.8,0-3.5-0.5-5.1-1.4c-4.9-2.8-6.5-9-3.7-13.9c1.4-2.4,3.6-4,6.2-4.7c2.6-0.7,5.4-0.3,7.7,1
				c4.9,2.8,6.5,9,3.7,13.9c-1.4,2.4-3.6,4-6.2,4.7C246.7,277,245.8,277.1,244.9,277.1z M244.9,259.6c-0.6,0-1.3,0.1-1.9,0.3
				c-1.9,0.5-3.5,1.7-4.5,3.4c-2,3.5-0.8,8,2.7,10c1.7,1,3.7,1.2,5.6,0.7c1.9-0.5,3.5-1.7,4.5-3.4c2-3.5,0.8-8-2.7-10
				C247.5,259.9,246.2,259.6,244.9,259.6z"/>
		</g>
		<g>
			<path class="st1" d="M244.9,340.9c-0.9,0-1.8-0.1-2.7-0.4c-2.6-0.7-4.8-2.4-6.2-4.7c-2.8-4.9-1.1-11.1,3.7-13.9l0,0
				c2.4-1.4,5.1-1.7,7.7-1c2.6,0.7,4.8,2.4,6.2,4.7c2.8,4.9,1.1,11.1-3.7,13.9C248.4,340.5,246.7,340.9,244.9,340.9z M241.3,324.4
				c-3.5,2-4.7,6.5-2.7,10c1,1.7,2.6,2.9,4.5,3.4c1.9,0.5,3.9,0.2,5.6-0.7c3.5-2,4.7-6.5,2.7-10c-1-1.7-2.6-2.9-4.5-3.4
				C244.9,323.1,243,323.4,241.3,324.4L241.3,324.4z"/>
		</g>
		<g>
			<path class="st1" d="M300.2,372.8c-5.6,0-10.2-4.6-10.2-10.2c0-5.6,4.6-10.2,10.2-10.2c5.6,0,10.2,4.6,10.2,10.2
				C310.3,368.3,305.8,372.8,300.2,372.8z M300.2,355.3c-4,0-7.3,3.3-7.3,7.3s3.3,7.3,7.3,7.3c4,0,7.3-3.3,7.3-7.3
				S304.2,355.3,300.2,355.3z"/>
		</g>
		<g>
			<path class="st1" d="M355.4,340.9c-1.8,0-3.5-0.5-5.1-1.4l0,0c-4.9-2.8-6.5-9-3.7-13.9c1.4-2.4,3.6-4,6.2-4.7
				c2.6-0.7,5.4-0.3,7.7,1c4.9,2.8,6.5,9,3.7,13.9c-1.4,2.4-3.6,4-6.2,4.7C357.1,340.8,356.2,340.9,355.4,340.9z M351.7,337.1
				c1.7,1,3.7,1.2,5.6,0.7c1.9-0.5,3.5-1.7,4.5-3.4c2-3.5,0.8-8-2.7-10c-1.7-1-3.7-1.2-5.6-0.7c-1.9,0.5-3.5,1.7-4.5,3.4
				C347,330.6,348.2,335.1,351.7,337.1L351.7,337.1z"/>
		</g>
		<g>
			<path class="st1" d="M355.4,277.1c-0.9,0-1.8-0.1-2.7-0.4c-2.6-0.7-4.8-2.4-6.2-4.7c-2.8-4.9-1.1-11.1,3.7-13.9
				c2.4-1.4,5.1-1.7,7.7-1c2.6,0.7,4.8,2.4,6.2,4.7c2.8,4.9,1.1,11.1-3.7,13.9l0,0C358.9,276.6,357.2,277.1,355.4,277.1z
				 M355.4,259.6c-1.3,0-2.5,0.3-3.7,1c-3.5,2-4.7,6.5-2.7,10c1,1.7,2.6,2.9,4.5,3.4c1.9,0.5,3.9,0.2,5.6-0.7c3.5-2,4.7-6.5,2.7-10
				c-1-1.7-2.6-2.9-4.5-3.4C356.6,259.6,356,259.6,355.4,259.6z"/>
		</g>
	</g>
</g>
</svg>
