<?xml version="1.0" encoding="utf-8"?>
<!-- Generator: Adobe Illustrator 26.0.0, SVG Export Plug-In . SVG Version: 6.00 Build 0)  -->
<svg version="1.1" id="Layer_1" xmlns="http://www.w3.org/2000/svg" xmlns:xlink="http://www.w3.org/1999/xlink" x="0px" y="0px"
	 width="600px" height="600px" viewBox="0 0 600 600" style="enable-background:new 0 0 600 600;" xml:space="preserve">
<style type="text/css">
	.st0{fill:#32E4B6;}
	.st1{fill:#FFFFFF;}
</style>
<g>
	<g>
		<g>
			<path class="st0" d="M245.2,282.8c-0.5-2.4-0.7-4.8-0.7-7c0-19.1,15.5-34.7,34.6-34.7c18.6,0,34.1,15.2,34.5,33.9l-2.8,0.1
				c-0.4-17.1-14.6-31.1-31.7-31.1c-17.5,0-31.7,14.3-31.7,31.9c0,2.1,0.2,4.3,0.7,6.5L245.2,282.8z"/>
		</g>
		<g>
			<path class="st1" d="M253.7,282.6c-0.6-2.3-0.9-4.6-0.9-6.9c0-14.5,11.8-26.4,26.2-26.4c13,0,24.1,9.7,26,22.6l-2.8,0.4
				c-1.6-11.5-11.6-20.2-23.2-20.2c-12.9,0-23.4,10.6-23.4,23.5c0,2.1,0.3,4.2,0.8,6.2L253.7,282.6z"/>
		</g>
		<g>
			<path class="st1" d="M275.8,282.3l-2.8-0.5l1.7-8.6c-2-1.4-3.2-3.7-3.2-6.2c0-4.2,3.4-7.6,7.6-7.6c4.2,0,7.6,3.4,7.6,7.6
				c0,2.5-1.2,4.8-3.2,6.2l1.1,5.6l-2.8,0.5l-1.5-7.7l1-0.5c1.6-0.8,2.6-2.4,2.6-4.2c0-2.6-2.1-4.8-4.8-4.8c-2.6,0-4.8,2.1-4.8,4.8
				c0,1.8,1,3.4,2.6,4.2l1,0.5L275.8,282.3z"/>
		</g>
	</g>
	<g>
		<rect x="302.5" y="272.1" class="st0" width="2.8" height="85.4"/>
	</g>
	<g>
		<path class="st0" d="M251.7,350.1c-19.1,0-34.6-15.6-34.6-34.7s15.5-34.7,34.6-34.7c7.4,0,14.5,2.3,20.5,6.8l-1.7,2.3
			c-5.5-4.1-12-6.2-18.8-6.2c-17.5,0-31.7,14.3-31.7,31.9c0,17.6,14.2,31.9,31.7,31.9c9.4,0,18.3-4.2,24.3-11.4l2.2,1.8
			C271.6,345.5,261.9,350.1,251.7,350.1z"/>
	</g>
	<g>
		<path class="st1" d="M251.7,341.7c-14.5,0-26.3-11.8-26.3-26.4s11.8-26.4,26.3-26.4c8.2,0,15.8,3.8,20.8,10.3l-2.2,1.7
			c-4.5-5.9-11.2-9.2-18.5-9.2c-12.9,0-23.4,10.6-23.4,23.5s10.5,23.5,23.4,23.5c8.3,0,16-4.5,20.2-11.7l2.5,1.4
			C269.7,336.7,261,341.7,251.7,341.7z"/>
	</g>
	<g>
		<g>
			<path class="st0" d="M360,305c-4.1,0-7.4-3.3-7.4-7.4s3.3-7.4,7.4-7.4c4.1,0,7.4,3.3,7.4,7.4S364.1,305,360,305z M360,293
				c-2.5,0-4.6,2.1-4.6,4.6s2.1,4.6,4.6,4.6s4.6-2.1,4.6-4.6S362.6,293,360,293z"/>
		</g>
		<g>
			<rect x="336.4" y="296.1" class="st0" width="17.6" height="2.8"/>
		</g>
	</g>
	<g>
		<g>
			<path class="st0" d="M356.2,345.8c-4.1,0-7.4-3.3-7.4-7.4s3.3-7.4,7.4-7.4c4.1,0,7.4,3.3,7.4,7.4S360.3,345.8,356.2,345.8z
				 M356.2,333.8c-2.5,0-4.6,2.1-4.6,4.6c0,2.5,2.1,4.6,4.6,4.6s4.6-2.1,4.6-4.6C360.8,335.9,358.7,333.8,356.2,333.8z"/>
		</g>
		<g>
			<rect x="329.5" y="337" class="st0" width="20.7" height="2.8"/>
		</g>
	</g>
	<g>
		<g>
			<path class="st0" d="M375.5,325.4c-4.1,0-7.4-3.3-7.4-7.4s3.3-7.4,7.4-7.4c4.1,0,7.4,3.3,7.4,7.4S379.6,325.4,375.5,325.4z
				 M375.5,313.4c-2.5,0-4.6,2.1-4.6,4.6s2.1,4.6,4.6,4.6s4.6-2.1,4.6-4.6S378,313.4,375.5,313.4z"/>
		</g>
		<g>
			<rect x="336.3" y="316.6" class="st0" width="33.1" height="2.8"/>
		</g>
	</g>
	<g id="Shield_3_00000057116247564034952880000008760357920940747417_">
		<path class="st0" d="M303.9,359l-0.4-0.1c-0.3-0.1-33.5-10.9-33.5-43.1l0-33.7l33.9-11.5l33.9,11.5l0,33.7c0,32-33.2,43-33.5,43.1
			L303.9,359z M272.8,284.1l0,31.7c0,28.2,27.3,38.9,31.1,40.2c3.8-1.4,31.1-12.2,31.1-40.2l0-31.6l-31.1-10.6L272.8,284.1z"/>
	</g>
	<g>
		<g>
			<path class="st1" d="M251.7,332.2c-4.1,0-7.4-3.3-7.4-7.4s3.3-7.4,7.4-7.4s7.4,3.3,7.4,7.4S255.8,332.2,251.7,332.2z
				 M251.7,320.2c-2.5,0-4.6,2.1-4.6,4.6c0,2.5,2.1,4.6,4.6,4.6s4.6-2.1,4.6-4.6C256.3,322.2,254.2,320.2,251.7,320.2z"/>
		</g>
		<g>
			<rect x="250.3" y="298.6" class="st1" width="2.8" height="20.2"/>
		</g>
		<g>
			<rect x="246.3" y="301.7" class="st1" width="5.4" height="2.8"/>
		</g>
		<g>
			<rect x="246.3" y="307" class="st1" width="5.4" height="2.8"/>
		</g>
	</g>
</g>
</svg>
