<?xml version="1.0" encoding="utf-8"?>
<!-- Generator: Adobe Illustrator 26.0.0, SVG Export Plug-In . SVG Version: 6.00 Build 0)  -->
<svg version="1.1" id="Layer_1" xmlns="http://www.w3.org/2000/svg" xmlns:xlink="http://www.w3.org/1999/xlink" x="0px" y="0px"
	 width="600px" height="600px" viewBox="0 0 600 600" style="enable-background:new 0 0 600 600;" xml:space="preserve">
<style type="text/css">
	.st0{fill:#32E4B6;}
	.st1{fill:#FFFFFF;}
</style>
<g>
	<g>
		<polygon class="st0" points="348.8,364 259.9,364 259.9,353.9 262.7,353.9 262.7,361.2 345.9,361.2 345.9,247.5 338.7,247.5 
			338.7,244.7 348.8,244.7 		"/>
	</g>
	<g>
		<path class="st0" d="M340.1,355.3h-88.8v-96.5l22.8-22.8h66V355.3z M254.1,352.5h83.2V238.8h-62L254.1,260V352.5z"/>
	</g>
	<g>
		<polygon class="st0" points="276.1,260.8 252.7,260.8 252.7,258 273.2,258 273.2,237.4 276.1,237.4 		"/>
	</g>
	<g>
		<g>
			<path class="st1" d="M295.7,310.3c-13.2,0-24-10.8-24-24c0-13.2,10.8-24,24-24s24,10.8,24,24
				C319.7,299.5,308.9,310.3,295.7,310.3z M295.7,265.1c-11.7,0-21.2,9.5-21.2,21.2s9.5,21.2,21.2,21.2s21.2-9.5,21.2-21.2
				S307.3,265.1,295.7,265.1z"/>
		</g>
		<g>
			<rect x="294.2" y="263.7" class="st1" width="2.8" height="22.6"/>
		</g>
		<g>
			<rect x="295.7" y="284.9" class="st1" width="22.6" height="2.8"/>
		</g>
		<g>
			
				<rect x="276.4" y="292.8" transform="matrix(0.7076 -0.7066 0.7066 0.7076 -123.8144 289.3042)" class="st1" width="22.6" height="2.8"/>
		</g>
	</g>
	<g>
		<rect x="268.8" y="323.4" class="st1" width="53.8" height="2.8"/>
	</g>
	<g>
		<rect x="268.8" y="337" class="st1" width="33" height="2.8"/>
	</g>
</g>
</svg>
