<?xml version="1.0" encoding="utf-8"?>
<!-- Generator: Adobe Illustrator 26.0.0, SVG Export Plug-In . SVG Version: 6.00 Build 0)  -->
<svg version="1.1" id="Layer_1" xmlns="http://www.w3.org/2000/svg" xmlns:xlink="http://www.w3.org/1999/xlink" x="0px" y="0px"
	 width="600px" height="600px" viewBox="0 0 600 600" style="enable-background:new 0 0 600 600;" xml:space="preserve">
<style type="text/css">
	.st0{fill:#32E4B6;}
	.st1{fill:#FFFFFF;}
</style>
<g>
	<g>
		<g>
			<path class="st0" d="M347.3,368.8H336c-2.4,0-4.4-2-4.4-4.4v-5.2c-1.9-0.6-3.7-1.3-5.5-2.3l-3.7,3.7c-1.7,1.7-4.5,1.7-6.2,0l-8-8
				c-1.7-1.7-1.7-4.5,0-6.2l3.7-3.7c-0.9-1.7-1.7-3.6-2.3-5.5h-5.2c-2.4,0-4.4-2-4.4-4.4v-11.2c0-2.4,2-4.4,4.4-4.4h5.2
				c0.6-1.9,1.3-3.7,2.3-5.5l-3.7-3.7c-0.8-0.8-1.3-1.9-1.3-3.1c0-1.2,0.5-2.3,1.3-3.1l8-8c0.8-0.8,1.9-1.3,3.1-1.3s2.3,0.5,3.1,1.3
				l3.7,3.7c1.8-0.9,3.6-1.7,5.5-2.3v-5.2c0-2.4,2-4.4,4.4-4.4h11.2c2.4,0,4.4,2,4.4,4.4v5.2c1.9,0.6,3.7,1.3,5.5,2.3l3.7-3.7
				c0.8-0.8,1.9-1.3,3.1-1.3c1.2,0,2.3,0.5,3.1,1.3l8,8c0.8,0.8,1.3,1.9,1.3,3.1c0,1.2-0.5,2.3-1.3,3.1l-3.7,3.7
				c0.9,1.7,1.7,3.6,2.3,5.5h5.2c2.4,0,4.4,2,4.4,4.4V333c0,2.4-2,4.4-4.4,4.4h-5.2c-0.6,1.9-1.3,3.7-2.3,5.5l3.7,3.7
				c1.7,1.7,1.7,4.5,0,6.2l-8,8c-1.7,1.7-4.5,1.7-6.2,0l-3.7-3.7c-1.8,0.9-3.6,1.7-5.5,2.3v5.2C351.6,366.9,349.7,368.8,347.3,368.8
				z M325.7,353.4l0.9,0.5c2.1,1.2,4.4,2.2,6.8,2.8l1,0.3v7.4c0,0.8,0.7,1.5,1.5,1.5h11.2c0.8,0,1.5-0.7,1.5-1.5v-7.4l1-0.3
				c2.4-0.7,4.7-1.6,6.8-2.8l0.9-0.5l5.2,5.2c0.6,0.6,1.6,0.6,2.2,0l8-8c0.3-0.3,0.4-0.7,0.4-1.1c0-0.4-0.2-0.8-0.4-1.1l-5.2-5.2
				l0.5-0.9c1.2-2.1,2.2-4.4,2.8-6.8l0.3-1h7.4c0.8,0,1.5-0.7,1.5-1.5v-11.2c0-0.8-0.7-1.5-1.5-1.5h-7.4l-0.3-1
				c-0.7-2.4-1.6-4.7-2.8-6.8l-0.5-0.9l5.2-5.2c0.3-0.3,0.4-0.7,0.4-1.1s-0.2-0.8-0.4-1.1l-8-8c-0.6-0.6-1.6-0.6-2.2,0l-5.2,5.2
				l-0.9-0.5c-2.1-1.2-4.4-2.2-6.8-2.8l-1-0.3v-7.4c0-0.8-0.7-1.5-1.5-1.5H336c-0.8,0-1.5,0.7-1.5,1.5v7.4l-1,0.3
				c-2.4,0.7-4.7,1.6-6.8,2.8l-0.9,0.5l-5.2-5.2c-0.6-0.6-1.6-0.6-2.2,0l-8,8c-0.3,0.3-0.4,0.7-0.4,1.1s0.2,0.8,0.4,1.1l5.2,5.2
				l-0.5,0.9c-1.2,2.1-2.2,4.4-2.8,6.8l-0.3,1h-7.4c-0.8,0-1.5,0.7-1.5,1.5V333c0,0.8,0.7,1.5,1.5,1.5h7.4l0.3,1
				c0.7,2.4,1.6,4.7,2.8,6.8l0.5,0.9l-5.2,5.2c-0.3,0.3-0.4,0.7-0.4,1.1c0,0.4,0.2,0.8,0.4,1.1l8,8c0.6,0.6,1.6,0.6,2.2,0
				L325.7,353.4z"/>
		</g>
		<g>
			<path class="st1" d="M341.6,341c-7.5,0-13.7-6.1-13.7-13.7c0-7.5,6.1-13.7,13.7-13.7c7.5,0,13.7,6.1,13.7,13.7
				C355.3,334.9,349.2,341,341.6,341z M341.6,316.5c-6,0-10.8,4.9-10.8,10.8s4.9,10.8,10.8,10.8s10.8-4.9,10.8-10.8
				S347.6,316.5,341.6,316.5z"/>
		</g>
		<g>
			<g>
				<path class="st0" d="M268.4,287.4l-2.8-0.6l4.3-19.1c0.3-1.2,1.2-2.3,2.3-2.7c1.2-0.5,2.5-0.3,3.6,0.4c7.3,5,16.2,6.9,26.3,5.6
					l0.3,2.8c-10.9,1.3-20.4-0.8-28.3-6.1c-0.3-0.2-0.7-0.2-1-0.1c-0.2,0.1-0.5,0.3-0.6,0.7L268.4,287.4z"/>
			</g>
			<g>
				<g>
					<g>
						<path class="st0" d="M328.4,299.2l-2.8-0.5c0.5-3.2,0.9-7,1.3-11.8l2.8,0.2C329.3,292,328.9,296,328.4,299.2z"/>
					</g>
					<g>
						<path class="st0" d="M297.6,335c-2.3,0-8.1-0.5-10.5-1.9c-3.5-2.1-11.6-13.6-15.8-20.7c-2.6-4.3-4.6-8.9-5.8-24.9
							c-1.2-2.1-7.5-13.4-6-28.6c0.9-8.9,5.4-13.6,9.1-16c2.9-1.8,5.6-2.6,7-2.8c1.1-2.8,5.7-10.7,23.4-11.2
							c16.9-0.5,20.8,5.4,23.7,9.7c0.7,1.1,1.4,2,2.1,2.7c0.6,0.6,1.3,1.1,2.1,1.7c4.7,3.7,10.6,8.2,9.5,26.6
							c-0.4,7.2-6.7,17.8-7,18.3l-2.6,4.4l0-5.1c0-4.4-0.8-11.2-2.6-12.7c-0.2-0.2-0.4-0.2-0.5-0.2l-0.7,0.1
							c-11.4,1.9-22.2,3.8-30.7-9.7c-1.2-2-2.4-4.1-3.4-6.5l2.6-1.1c0.9,2.2,2,4.3,3.2,6.1c7.5,11.9,16.9,10.3,27.8,8.4l0.7-0.1
							c1-0.2,2,0.1,2.9,0.8c2,1.7,2.9,6.1,3.3,9.7c1.8-3.6,4-8.8,4.2-12.6c1-16.8-4-20.7-8.4-24.2c-0.8-0.6-1.6-1.2-2.3-1.9
							c-1-0.9-1.7-2-2.5-3.2c-2.6-4-6-8.9-21.2-8.4c-18.6,0.6-20.9,9.6-21,10l-0.2,1l-1,0.1c-0.5,0.1-13.1,1.6-14.5,16.4
							c-1.5,15.5,5.7,27.1,5.8,27.2l0.2,0.3l0,0.4c1.1,15.6,3,20,5.4,24c4.6,7.8,12.1,18.1,14.8,19.7c1.5,0.9,6.4,1.5,9,1.5
							c1,0,2.5-0.1,3.8-0.3l0.3,2.8C300.3,334.9,298.8,335,297.6,335z"/>
					</g>
				</g>
				<g>
					<g>
						
							<rect x="272.2" y="330.7" transform="matrix(0.1715 -0.9852 0.9852 0.1715 -95.3036 550.8815)" class="st0" width="15.3" height="2.8"/>
					</g>
					<g>
						<path class="st0" d="M220,361.3l-2.8-0.6c0.3-1.6,2.1-9.5,5.9-10.8c9.7-3.3,53.4-11.3,55.3-11.7l1.1-0.2l6.6,15.5l-2.6,1.1
							l-5.7-13.4c-7,1.3-45.1,8.4-53.7,11.3C222.5,353.1,220.7,357.5,220,361.3z"/>
					</g>
				</g>
				<g>
					<g>
						<path class="st0" d="M375.3,361.3c-0.3-1.5-1.5-6-3.1-7.9l2.2-1.8c2.4,2.9,3.7,8.9,3.7,9.2L375.3,361.3z"/>
					</g>
				</g>
			</g>
		</g>
	</g>
	<g>
		<circle class="st1" cx="341.6" cy="305.2" r="2.9"/>
	</g>
	<g>
		<circle class="st1" cx="341.6" cy="349.5" r="2.9"/>
	</g>
	<g>
		<circle class="st1" cx="326" cy="311.7" r="2.9"/>
	</g>
	<g>
		<circle class="st1" cx="357.3" cy="343" r="2.9"/>
	</g>
	<g>
		<circle class="st1" cx="319.5" cy="327.4" r="2.9"/>
	</g>
	<g>
		<circle class="st1" cx="363.8" cy="327.4" r="2.9"/>
	</g>
	<g>
		<circle class="st1" cx="326" cy="343" r="2.9"/>
	</g>
	<g>
		<circle class="st1" cx="357.3" cy="311.7" r="2.9"/>
	</g>
</g>
</svg>
