<svg xmlns="http://www.w3.org/2000/svg" version="1.1" id="prefix__Layer_1" x="0" y="0" xml:space="preserve" viewBox="217.2 228.87 166 139.93"><style>.prefix__st0{fill:#32e4b6}.prefix__st1{fill:#fff}</style><path class="prefix__st0" d="M347.3 368.8H336c-2.4 0-4.4-2-4.4-4.4v-5.2c-1.9-.6-3.7-1.3-5.5-2.3l-3.7 3.7c-1.7 1.7-4.5 1.7-6.2 0l-8-8c-1.7-1.7-1.7-4.5 0-6.2l3.7-3.7c-.9-1.7-1.7-3.6-2.3-5.5h-5.2c-2.4 0-4.4-2-4.4-4.4v-11.2c0-2.4 2-4.4 4.4-4.4h5.2c.6-1.9 1.3-3.7 2.3-5.5l-3.7-3.7c-.8-.8-1.3-1.9-1.3-3.1 0-1.2.5-2.3 1.3-3.1l8-8c.8-.8 1.9-1.3 3.1-1.3s2.3.5 3.1 1.3l3.7 3.7c1.8-.9 3.6-1.7 5.5-2.3V290c0-2.4 2-4.4 4.4-4.4h11.2c2.4 0 4.4 2 4.4 4.4v5.2c1.9.6 3.7 1.3 5.5 2.3l3.7-3.7c.8-.8 1.9-1.3 3.1-1.3 1.2 0 2.3.5 3.1 1.3l8 8c.8.8 1.3 1.9 1.3 3.1 0 1.2-.5 2.3-1.3 3.1l-3.7 3.7c.9 1.7 1.7 3.6 2.3 5.5h5.2c2.4 0 4.4 2 4.4 4.4V333c0 2.4-2 4.4-4.4 4.4h-5.2c-.6 1.9-1.3 3.7-2.3 5.5l3.7 3.7c1.7 1.7 1.7 4.5 0 6.2l-8 8c-1.7 1.7-4.5 1.7-6.2 0l-3.7-3.7c-1.8.9-3.6 1.7-5.5 2.3v5.2c0 2.3-1.9 4.2-4.3 4.2zm-21.6-15.4l.9.5c2.1 1.2 4.4 2.2 6.8 2.8l1 .3v7.4c0 .8.7 1.5 1.5 1.5h11.2c.8 0 1.5-.7 1.5-1.5V357l1-.3c2.4-.7 4.7-1.6 6.8-2.8l.9-.5 5.2 5.2c.6.6 1.6.6 2.2 0l8-8c.3-.3.4-.7.4-1.1 0-.4-.2-.8-.4-1.1l-5.2-5.2.5-.9c1.2-2.1 2.2-4.4 2.8-6.8l.3-1h7.4c.8 0 1.5-.7 1.5-1.5v-11.2c0-.8-.7-1.5-1.5-1.5h-7.4l-.3-1c-.7-2.4-1.6-4.7-2.8-6.8l-.5-.9 5.2-5.2c.3-.3.4-.7.4-1.1s-.2-.8-.4-1.1l-8-8c-.6-.6-1.6-.6-2.2 0l-5.2 5.2-.9-.5c-2.1-1.2-4.4-2.2-6.8-2.8l-1-.3v-7.4c0-.8-.7-1.5-1.5-1.5H336c-.8 0-1.5.7-1.5 1.5v7.4l-1 .3c-2.4.7-4.7 1.6-6.8 2.8l-.9.5-5.2-5.2c-.6-.6-1.6-.6-2.2 0l-8 8c-.3.3-.4.7-.4 1.1s.2.8.4 1.1l5.2 5.2-.5.9c-1.2 2.1-2.2 4.4-2.8 6.8l-.3 1h-7.4c-.8 0-1.5.7-1.5 1.5V333c0 .8.7 1.5 1.5 1.5h7.4l.3 1c.7 2.4 1.6 4.7 2.8 6.8l.5.9-5.2 5.2c-.3.3-.4.7-.4 1.1 0 .4.2.8.4 1.1l8 8c.6.6 1.6.6 2.2 0l5.1-5.2z"/><path class="prefix__st1" d="M341.6 341c-7.5 0-13.7-6.1-13.7-13.7 0-7.5 6.1-13.7 13.7-13.7 7.5 0 13.7 6.1 13.7 13.7s-6.1 13.7-13.7 13.7zm0-24.5c-6 0-10.8 4.9-10.8 10.8s4.9 10.8 10.8 10.8 10.8-4.9 10.8-10.8-4.8-10.8-10.8-10.8z"/><path class="prefix__st0" d="M268.4 287.4l-2.8-.6 4.3-19.1c.3-1.2 1.2-2.3 2.3-2.7 1.2-.5 2.5-.3 3.6.4 7.3 5 16.2 6.9 26.3 5.6l.3 2.8c-10.9 1.3-20.4-.8-28.3-6.1-.3-.2-.7-.2-1-.1-.2.1-.5.3-.6.7l-4.1 19.1zM328.4 299.2l-2.8-.5c.5-3.2.9-7 1.3-11.8l2.8.2c-.4 4.9-.8 8.9-1.3 12.1z"/><path class="prefix__st0" d="M297.6 335c-2.3 0-8.1-.5-10.5-1.9-3.5-2.1-11.6-13.6-15.8-20.7-2.6-4.3-4.6-8.9-5.8-24.9-1.2-2.1-7.5-13.4-6-28.6.9-8.9 5.4-13.6 9.1-16 2.9-1.8 5.6-2.6 7-2.8 1.1-2.8 5.7-10.7 23.4-11.2 16.9-.5 20.8 5.4 23.7 9.7.7 1.1 1.4 2 2.1 2.7.6.6 1.3 1.1 2.1 1.7 4.7 3.7 10.6 8.2 9.5 26.6-.4 7.2-6.7 17.8-7 18.3l-2.6 4.4v-5.1c0-4.4-.8-11.2-2.6-12.7-.2-.2-.4-.2-.5-.2l-.7.1c-11.4 1.9-22.2 3.8-30.7-9.7-1.2-2-2.4-4.1-3.4-6.5l2.6-1.1c.9 2.2 2 4.3 3.2 6.1 7.5 11.9 16.9 10.3 27.8 8.4l.7-.1c1-.2 2 .1 2.9.8 2 1.7 2.9 6.1 3.3 9.7 1.8-3.6 4-8.8 4.2-12.6 1-16.8-4-20.7-8.4-24.2-.8-.6-1.6-1.2-2.3-1.9-1-.9-1.7-2-2.5-3.2-2.6-4-6-8.9-21.2-8.4-18.6.6-20.9 9.6-21 10l-.2 1-1 .1c-.5.1-13.1 1.6-14.5 16.4-1.5 15.5 5.7 27.1 5.8 27.2l.2.3v.4c1.1 15.6 3 20 5.4 24 4.6 7.8 12.1 18.1 14.8 19.7 1.5.9 6.4 1.5 9 1.5 1 0 2.5-.1 3.8-.3l.3 2.8c-1.5.1-3 .2-4.2.2z"/><path transform="rotate(-80.125 279.88 332.099)" class="prefix__st0" d="M272.2 330.7h15.3v2.8h-15.3z"/><path class="prefix__st0" d="M220 361.3l-2.8-.6c.3-1.6 2.1-9.5 5.9-10.8 9.7-3.3 53.4-11.3 55.3-11.7l1.1-.2 6.6 15.5-2.6 1.1-5.7-13.4c-7 1.3-45.1 8.4-53.7 11.3-1.6.6-3.4 5-4.1 8.8zM375.3 361.3c-.3-1.5-1.5-6-3.1-7.9l2.2-1.8c2.4 2.9 3.7 8.9 3.7 9.2l-2.8.5z"/><circle class="prefix__st1" cx="341.6" cy="305.2" r="2.9"/><g><circle class="prefix__st1" cx="341.6" cy="349.5" r="2.9"/></g><g><circle class="prefix__st1" cx="326" cy="311.7" r="2.9"/></g><g><circle class="prefix__st1" cx="357.3" cy="343" r="2.9"/></g><g><circle class="prefix__st1" cx="319.5" cy="327.4" r="2.9"/></g><g><circle class="prefix__st1" cx="363.8" cy="327.4" r="2.9"/></g><g><circle class="prefix__st1" cx="326" cy="343" r="2.9"/></g><g><circle class="prefix__st1" cx="357.3" cy="311.7" r="2.9"/></g></svg>