<?xml version="1.0" encoding="utf-8"?>
<!-- Generator: Adobe Illustrator 26.0.0, SVG Export Plug-In . SVG Version: 6.00 Build 0)  -->
<svg version="1.1" id="Layer_1" xmlns="http://www.w3.org/2000/svg" xmlns:xlink="http://www.w3.org/1999/xlink" x="0px" y="0px"
	 width="600px" height="600px" viewBox="0 0 600 600" style="enable-background:new 0 0 600 600;" xml:space="preserve">
<style type="text/css">
	.st0{fill:#32E4B6;}
	.st1{fill:#FFFFFF;}
</style>
<g>
	<g>
		<polygon class="st0" points="320.7,329.2 221,329.2 221,239.8 350.7,239.8 350.7,299.2 347.9,299.2 347.9,242.7 223.8,242.7 
			223.8,326.4 320.7,326.4 		"/>
	</g>
	<g>
		<rect x="222.4" y="250.8" class="st0" width="126.9" height="2.8"/>
	</g>
	<g>
		<g>
			<circle class="st0" cx="230" cy="246.7" r="1.6"/>
		</g>
		<g>
			<circle class="st0" cx="236.3" cy="246.7" r="1.6"/>
		</g>
		<g>
			<circle class="st0" cx="242.5" cy="246.7" r="1.6"/>
		</g>
	</g>
	<g>
		<g>
			<polygon class="st1" points="323.5,316.9 243.1,316.9 243.1,263.1 328.6,263.1 328.6,309.4 325.7,309.4 325.7,265.9 246,265.9 
				246,314.1 323.5,314.1 			"/>
		</g>
		<g>
			<path class="st1" d="M253.6,316.8l-0.9-2.7c23.9-8.1,49-12.3,74.4-12.3l0.1,2.8l-0.1,0C301.9,304.7,277.2,308.8,253.6,316.8z"/>
		</g>
		<g>
			<path class="st1" d="M284.3,308.5c-12.6-5.8-26.1-9.5-39.9-11l0.3-2.8c14.2,1.5,27.9,5.3,40.8,11.2L284.3,308.5z"/>
		</g>
		<g>
			<path class="st1" d="M271.9,303l-1.4-2.5c17.3-9.4,36.8-14.5,56.6-14.7l0,2.8C307.9,288.9,288.7,293.9,271.9,303z"/>
		</g>
		<g>
			<path class="st1" d="M263.1,287.3c-4.4,0-8-3.6-8-8c0-4.4,3.6-8,8-8s8,3.6,8,8C271.1,283.7,267.5,287.3,263.1,287.3z
				 M263.1,274.1c-2.9,0-5.2,2.3-5.2,5.2s2.3,5.2,5.2,5.2s5.2-2.3,5.2-5.2S266,274.1,263.1,274.1z"/>
		</g>
	</g>
	<g>
		<path class="st0" d="M349.3,357.8c-16.6,0-30-13.5-30-30c0-16.6,13.5-30,30-30c16.6,0,30,13.5,30,30
			C379.3,344.4,365.9,357.8,349.3,357.8z M349.3,300.6c-15,0-27.2,12.2-27.2,27.2s12.2,27.2,27.2,27.2s27.2-12.2,27.2-27.2
			S364.3,300.6,349.3,300.6z"/>
	</g>
	<g>
		<path class="st1" d="M349.3,350.6c-12.6,0-22.9-10.3-22.9-22.9s10.3-22.8,22.9-22.8s22.8,10.2,22.8,22.8S361.9,350.6,349.3,350.6z
			 M349.3,307.8c-11,0-20,9-20,20c0,11,9,20,20,20c11,0,20-9,20-20C369.3,316.8,360.3,307.8,349.3,307.8z"/>
	</g>
	<g>
		<path class="st1" d="M349.3,341.1L336,327.8l13.3-13.3l13.3,13.3L349.3,341.1z M340,327.8l9.3,9.3l9.3-9.3l-9.3-9.3L340,327.8z"/>
	</g>
</g>
</svg>
