<svg xmlns="http://www.w3.org/2000/svg" xmlns:xlink="http://www.w3.org/1999/xlink" version="1.1" id="Layer_1" x="0px" y="0px" style="enable-background:new 0 0 600 600;" xml:space="preserve" viewBox="213.7 239.8 172.92 118"><style type="text/css">	.st0{fill:#32E4B6;}	.st1{fill:#FFFFFF;}</style><g>	<g>		<path class="st0" d="M347,333.6c-13.3,0-24.1-10.8-24.1-24.1s10.8-24.1,24.1-24.1s24.1,10.8,24.1,24.1S360.3,333.6,347,333.6z     M347,288.3c-11.7,0-21.3,9.5-21.3,21.2c0,11.7,9.5,21.2,21.3,21.2s21.3-9.5,21.3-21.2C368.3,297.8,358.7,288.3,347,288.3z"></path>	</g>	<g>					<rect x="372.9" y="320.9" transform="matrix(0.7068 -0.7075 0.7075 0.7068 -128.5267 363.5974)" class="st0" width="2.8" height="31.9"></rect>	</g>	<g>		<g>			<polygon class="st0" points="348.4,357.8 260.7,357.8 260.7,239.8 348.4,239.8 348.4,286.9 345.6,286.9 345.6,242.7 263.5,242.7      263.5,355 345.6,355 345.6,332.2 348.4,332.2    "></polygon>		</g>		<g>			<g>				<rect x="319.3" y="260.4" class="st1" width="10.1" height="2.8"></rect>			</g>			<g>				<rect x="279.7" y="260.4" class="st1" width="31" height="2.8"></rect>			</g>			<g>				<rect x="301.2" y="277.1" class="st1" width="21.9" height="2.8"></rect>			</g>			<g>				<rect x="279.7" y="277.1" class="st1" width="13.2" height="2.8"></rect>			</g>			<g>				<rect x="305.5" y="293.9" class="st1" width="9" height="2.8"></rect>			</g>			<g>				<rect x="279.7" y="293.9" class="st1" width="16.7" height="2.8"></rect>			</g>		</g>		<g>			<path class="st1" d="M279.1,342.4l-1.5-2.4c4.2-2.5,7.2-6.3,8.3-10.3l2.8,0.5c-0.2,2-0.3,4.1-0.2,6.1c0,0.6,0.1,1,0.3,1.3     c0.4,0.5,1,0.9,2.3,0.5c5.1-1.6,10.8-8.2,10.9-8.2l0.6-0.7l2.1,0.6l0,1.1c0,3.3,0,6.6-0.1,7.2c0,0.4,0.1,0.7,0.1,0.7     c0.1,0,0.5-0.3,0.8-0.5c2.5-1.9,5.7-3.2,9.1-3.6l0.4,2.8c-2.9,0.4-5.6,1.5-7.7,3.1c-0.6,0.5-1.5,1.2-2.8,1.1     c-1.7-0.1-2.8-1.6-2.7-3.6c0-0.4,0-1.9,0.1-3.9c-2.4,2.3-6.2,5.5-9.9,6.7c-2.2,0.7-4,0.2-5.3-1.4c-0.8-1-0.9-2.1-0.9-2.9     C284,338.8,281.7,340.8,279.1,342.4z"></path>		</g>	</g>	<g>		<path class="st0" d="M241.4,279.7c-4.7,0-8.6-3.9-8.6-8.6s3.9-8.6,8.6-8.6s8.6,3.9,8.6,8.6S246.2,279.7,241.4,279.7z M241.4,265.3    c-3.2,0-5.8,2.6-5.8,5.8s2.6,5.8,5.8,5.8s5.8-2.6,5.8-5.8S244.6,265.3,241.4,265.3z"></path>	</g>	<g>		<path class="st0" d="M222.3,307.4c-4.7,0-8.6-3.9-8.6-8.6s3.9-8.6,8.6-8.6s8.6,3.9,8.6,8.6S227.1,307.4,222.3,307.4z M222.3,293.1    c-3.2,0-5.8,2.6-5.8,5.8c0,3.2,2.6,5.8,5.8,5.8s5.8-2.6,5.8-5.8C228.1,295.6,225.5,293.1,222.3,293.1z"></path>	</g>	<g>		<path class="st0" d="M233.8,335.2c-4.7,0-8.6-3.9-8.6-8.6c0-4.7,3.9-8.6,8.6-8.6s8.6,3.9,8.6,8.6    C242.4,331.3,238.5,335.2,233.8,335.2z M233.8,320.8c-3.2,0-5.8,2.6-5.8,5.8c0,3.2,2.6,5.8,5.8,5.8s5.8-2.6,5.8-5.8    C239.5,323.4,236.9,320.8,233.8,320.8z"></path>	</g>	<g>		<rect x="248.6" y="269.7" class="st0" width="13.5" height="2.8"></rect>	</g>	<g>		<rect x="229.5" y="297.4" class="st0" width="32.6" height="2.8"></rect>	</g>	<g>		<rect x="241" y="325.1" class="st0" width="21.1" height="2.8"></rect>	</g></g></svg>