<?xml version="1.0" encoding="utf-8"?>
<svg viewBox="700.963 227.089 94 45.821" xmlns="http://www.w3.org/2000/svg">
  <path d="M32.3804 20.7576C32.3717 18.0005 31.2725 15.3587 29.3229 13.4091C27.3733 11.4595 24.7316 10.3604 21.9744 10.3516H17.5567C17.9008 8.67611 18.0284 6.96336 17.9363 5.25537C17.9296 5.16744 17.8985 5.08313 17.8465 5.01189C17.7946 4.94064 17.7238 4.88529 17.6421 4.85203C17.5659 4.81736 17.4818 4.80349 17.3985 4.81182C17.3151 4.82016 17.2355 4.8504 17.1676 4.89949C15.2504 6.41977 13.6154 8.26522 12.3371 10.3516H10.2967C9.32176 6.67583 7.38972 3.32423 4.69748 0.638382C4.63514 0.579834 4.55813 0.539224 4.4746 0.520848C4.39107 0.502472 4.30413 0.507013 4.22297 0.533991C4.13878 0.558915 4.06316 0.606707 4.00452 0.67205C3.94588 0.737394 3.90652 0.817726 3.89081 0.904108C3.89081 0.999011 1.99277 10.3658 8.63592 17.8062C8.67533 20.9953 8.51686 24.1838 8.16141 27.3533C6.48314 24.3778 4.1216 21.8439 1.27152 19.9604C1.19562 19.9172 1.10976 19.8944 1.0224 19.8944C0.935034 19.8944 0.849175 19.9172 0.773279 19.9604C0.697994 20.005 0.635359 20.068 0.591338 20.1436C0.547316 20.2192 0.523374 20.3048 0.52179 20.3923C0.52179 20.4777 0.521789 28.8338 7.04156 34.7889C6.43325 38.1216 5.64119 41.4182 4.66901 44.6635C4.64557 44.7385 4.64022 44.8181 4.65342 44.8956C4.66662 44.9731 4.69797 45.0464 4.74493 45.1095C4.78944 45.1737 4.84911 45.2259 4.91865 45.2615C4.98818 45.2971 5.06542 45.315 5.14352 45.3135H22.0029C24.7592 45.3048 27.4002 44.2063 29.3497 42.2577C31.2992 40.3091 32.3989 37.6686 32.4089 34.9123C32.4142 32.2855 31.4181 29.7555 29.6235 27.8373C31.4173 25.9186 32.4132 23.3889 32.4089 20.7624" fill="#283539" transform="matrix(1, 0, 0, 1, 700.963074, 227.08934)"/>
  <path d="M21.9746 45.8213H5.11522C4.95724 45.82 4.80172 45.7821 4.66091 45.7104C4.5201 45.6388 4.39786 45.5354 4.30381 45.4085C4.21011 45.2804 4.1476 45.1322 4.12124 44.9757C4.09488 44.8192 4.1054 44.6586 4.15196 44.5069C5.09832 41.3707 5.87293 38.1851 6.47232 34.9645C-4.52528e-07 28.8718 0 20.4682 0 20.3828C0.00240856 20.206 0.0509565 20.0328 0.140841 19.8805C0.230726 19.7282 0.358832 19.602 0.512472 19.5145C0.666119 19.4258 0.840407 19.3791 1.01782 19.3791C1.19524 19.3791 1.36953 19.4258 1.52318 19.5145C4.01662 21.1624 6.1492 23.2998 7.79146 25.797C8.03986 23.2059 8.1539 20.6037 8.13311 18.0008C1.45675 10.4086 3.35479 0.894679 3.388 0.799777C3.42485 0.626033 3.50705 0.465143 3.62623 0.333459C3.74541 0.201776 3.89733 0.103994 4.06655 0.0500518C4.23488 -0.00512927 4.4148 -0.0148817 4.58811 0.0217797C4.76142 0.0584411 4.92197 0.140216 5.05353 0.258836C7.72133 2.91899 9.66505 6.21677 10.7002 9.8392H12.0478C13.3345 7.79095 14.9599 5.97622 16.8546 4.47249C16.9986 4.36858 17.1675 4.30463 17.3442 4.28713C17.5208 4.26963 17.699 4.2992 17.8606 4.37284C18.0226 4.44525 18.1625 4.55942 18.2659 4.70366C18.3692 4.84791 18.4324 5.01704 18.449 5.19374C18.5398 6.74293 18.4474 8.29743 18.1737 9.82496H21.9698C24.8643 9.82496 27.6403 10.9748 29.687 13.0215C31.7337 15.0682 32.8836 17.8442 32.8836 20.7387C32.8852 23.3328 31.9596 25.842 30.2738 27.8136C31.9603 29.7848 32.8861 32.2944 32.8836 34.8886C32.8836 37.7831 31.7337 40.5591 29.687 42.6058C27.6403 44.6525 24.8643 45.8023 21.9698 45.8023L21.9746 45.8213ZM1.01545 20.3923C1.01545 20.8668 1.21949 28.7627 7.36914 34.3856C7.4332 34.445 7.48116 34.5197 7.50854 34.6027C7.53592 34.6857 7.54184 34.7742 7.52573 34.8601C6.90895 38.2166 6.109 41.5368 5.12945 44.8059H21.9746C24.5973 44.8021 27.1116 43.7585 28.9662 41.904C30.8208 40.0494 31.8643 37.5351 31.8681 34.9123C31.8671 32.4207 30.9228 30.0218 29.2251 28.198C29.136 28.1037 29.0863 27.9789 29.0863 27.8492C29.0863 27.7195 29.136 27.5947 29.2251 27.5005C30.9258 25.6748 31.8704 23.2718 31.8681 20.7767C31.8706 18.1498 30.8298 15.6294 28.9746 13.7697C27.1193 11.91 24.6015 10.8632 21.9746 10.8594H17.5569C17.4817 10.8593 17.4074 10.8427 17.3393 10.8107C17.2713 10.7788 17.2111 10.7322 17.163 10.6743C17.116 10.6157 17.0823 10.5476 17.0643 10.4747C17.0462 10.4018 17.0443 10.3258 17.0586 10.252C17.3908 8.63261 17.5152 6.97747 17.4288 5.32661C15.5734 6.81541 13.989 8.61331 12.7453 10.6411C12.6994 10.7141 12.6357 10.7741 12.5601 10.8156C12.4846 10.8571 12.3997 10.8787 12.3135 10.8784H10.2969C10.1874 10.8747 10.0821 10.8358 9.99655 10.7674C9.91104 10.699 9.84993 10.6048 9.82236 10.4988C8.86311 6.92119 6.98333 3.65735 4.37024 1.03229C4.27534 1.5068 2.71894 10.4228 9.02044 17.4646C9.10502 17.5565 9.15238 17.6766 9.1533 17.8015C9.1822 21.0116 9.01581 24.2204 8.65507 27.4103C8.64384 27.5186 8.59813 27.6204 8.52465 27.7007C8.45118 27.781 8.35383 27.8356 8.24699 27.8564C8.1411 27.878 8.03109 27.8652 7.93295 27.82C7.83481 27.7748 7.75366 27.6994 7.7013 27.6049C6.06563 24.7189 3.77767 22.2554 1.0202 20.4113" fill="#283539" transform="matrix(1, 0, 0, 1, 700.963074, 227.08934)"/>
  <path d="M32.0391 20.7577C32.0366 18.0892 30.9754 15.5308 29.0885 13.6439C27.2017 11.757 24.6432 10.6958 21.9747 10.6933H17.1442C17.5493 8.92203 17.709 7.10344 17.6187 5.28865C17.6165 5.2618 17.6068 5.2361 17.5909 5.21434C17.575 5.19258 17.5535 5.17561 17.5286 5.16528C17.5049 5.15105 17.4779 5.14354 17.4503 5.14354C17.4227 5.14354 17.3956 5.15105 17.372 5.16528C15.432 6.70242 13.7832 8.57468 12.5035 10.6933H10.0313C9.09318 6.98477 7.17192 3.59798 4.47006 0.889942C4.44887 0.871661 4.42341 0.859031 4.39603 0.853224C4.36866 0.847417 4.34026 0.848622 4.31347 0.856727C4.28801 0.866966 4.26531 0.883031 4.24718 0.903632C4.22905 0.924234 4.216 0.948798 4.20908 0.975354C4.20908 1.07026 2.33951 10.3517 8.98265 17.6734C9.02242 21.2913 8.81314 24.9077 8.3563 28.497C6.70141 25.1572 4.19365 22.3139 1.0868 20.2547C1.06317 20.2405 1.0361 20.233 1.00851 20.233C0.98092 20.233 0.953853 20.2405 0.930214 20.2547C0.905996 20.2687 0.885828 20.2887 0.871686 20.3128C0.857544 20.337 0.849916 20.3644 0.849548 20.3923C0.849548 20.473 0.849546 28.7959 7.39779 34.6561C6.77627 38.0676 5.96518 41.4419 4.9683 44.7632C4.95705 44.7852 4.95118 44.8096 4.95118 44.8343C4.95118 44.8591 4.95705 44.8835 4.9683 44.9055C4.98279 44.9245 5.00144 44.94 5.02283 44.9507C5.04421 44.9614 5.06776 44.967 5.09167 44.9672H21.951C24.6187 44.9647 27.1764 43.9042 29.0631 42.0183C30.9499 40.1325 32.0116 37.5752 32.0154 34.9076C32.0174 32.256 30.968 29.7118 29.0971 27.8326C30.9662 25.9524 32.0153 23.4089 32.0154 20.7577" fill="#283539" transform="matrix(1, 0, 0, 1, 700.963074, 227.08934)"/>
  <path d="M21.9748 45.3088H5.11544C5.03734 45.3102 4.9601 45.2923 4.89057 45.2567C4.82104 45.2211 4.76137 45.1689 4.71686 45.1047C4.6699 45.0417 4.63854 44.9684 4.62534 44.8908C4.61215 44.8133 4.61749 44.7338 4.64093 44.6587C5.61382 41.4136 6.40589 38.117 7.01348 34.7841C0.512693 28.829 0.493713 20.4729 0.493713 20.3875C0.495298 20.3 0.51924 20.2145 0.563262 20.1389C0.607283 20.0633 0.669918 20.0002 0.745203 19.9557C0.821099 19.9124 0.906958 19.8897 0.994322 19.8897C1.08169 19.8897 1.16754 19.9124 1.24344 19.9557C4.09928 21.8387 6.46587 24.3745 8.14756 27.3533C8.5029 24.1838 8.66137 20.9953 8.62207 17.8062C1.97893 10.3658 3.83426 0.99901 3.87697 0.904108C3.89267 0.817726 3.93204 0.737394 3.99068 0.67205C4.04932 0.606707 4.12494 0.558915 4.20913 0.533991C4.29029 0.507013 4.37723 0.502472 4.46076 0.520848C4.54429 0.539224 4.6213 0.579834 4.68364 0.638382C7.38106 3.32257 9.3181 6.67431 10.2971 10.3516H12.3375C13.6115 8.26639 15.2417 6.42101 17.1538 4.89949C17.2216 4.8504 17.3013 4.82015 17.3846 4.81182C17.468 4.80349 17.552 4.81736 17.6283 4.85203C17.71 4.88529 17.7807 4.94064 17.8327 5.01189C17.8847 5.08313 17.9158 5.16744 17.9225 5.25537C18.0192 6.96275 17.8964 8.67549 17.5571 10.3516H21.9701C24.728 10.3591 27.371 11.4577 29.3216 13.4075C31.2722 15.3572 32.372 17.9996 32.3808 20.7576C32.3851 23.3842 31.3892 25.9139 29.5954 27.8326C31.39 29.7507 32.3861 32.2808 32.3808 34.9075C32.3708 37.6638 31.2711 40.3044 29.3216 42.2529C27.3721 44.2015 24.7311 45.3 21.9748 45.3088ZM5.36693 44.6255H21.9748C24.5518 44.623 27.0227 43.5985 28.8453 41.7767C30.668 39.9549 31.6937 37.4845 31.6975 34.9075C31.6998 33.6385 31.452 32.3815 30.9684 31.2083C30.4848 30.035 29.7748 28.9686 28.8789 28.0698C28.8163 28.0067 28.7812 27.9214 28.7812 27.8326C28.7812 27.7437 28.8163 27.6584 28.8789 27.5953C29.7744 26.6973 30.4843 25.6316 30.9679 24.4592C31.4515 23.2868 31.6994 22.0306 31.6975 20.7624C31.6963 18.1837 30.6716 15.7109 28.8487 13.8871C27.0257 12.0632 24.5535 11.0374 21.9748 11.0349H17.1443C17.0932 11.0348 17.0429 11.0232 16.9969 11.001C16.9509 10.9788 16.9105 10.9466 16.8786 10.9068C16.8462 10.8677 16.8233 10.8217 16.8118 10.7723C16.8003 10.7229 16.8004 10.6714 16.8121 10.6221C17.1682 8.99576 17.3275 7.33254 17.2866 5.66819C15.5191 7.15234 14.006 8.91547 12.8073 10.8878C12.7759 10.9374 12.7325 10.9783 12.681 11.0065C12.6295 11.0347 12.5718 11.0494 12.5131 11.0491H10.0409C9.96447 11.0484 9.89047 11.0223 9.8304 10.9751C9.77032 10.9279 9.72754 10.8622 9.7087 10.7882C8.80481 7.26279 7.00705 4.0301 4.48909 1.40234C4.23285 3.13431 3.44517 11.0776 9.23419 17.455C9.29176 17.5169 9.32394 17.5982 9.32435 17.6828C9.36417 21.3165 9.15489 24.9487 8.698 28.5538C8.68868 28.627 8.65591 28.6953 8.60459 28.7483C8.55327 28.8013 8.48616 28.8363 8.41329 28.848C8.34469 28.8561 8.27523 28.8437 8.21361 28.8125C8.152 28.7813 8.10097 28.7325 8.0669 28.6725C6.48431 25.5045 4.13155 22.7846 1.22446 20.7624C1.30987 22.3852 2.00266 29.3652 7.64933 34.4235C7.69217 34.4634 7.72421 34.5134 7.74246 34.569C7.76072 34.6246 7.76459 34.6839 7.75372 34.7414C7.14003 38.084 6.34805 41.3913 5.38117 44.6492" fill="#283539" transform="matrix(1, 0, 0, 1, 700.963074, 227.08934)"/>
  <path d="M12.3374 11.0063H10.1072C10.3934 12.2524 10.5524 13.5243 10.5817 14.8024C11.0264 13.479 11.6101 12.2066 12.3232 11.0063" fill="#81B971" transform="matrix(1, 0, 0, 1, 700.963074, 227.08934)"/>
  <path d="M21.9746 16.3351C23.1421 16.3364 24.2614 16.8007 25.0869 17.6262C25.9125 18.4518 26.3768 19.5711 26.3781 20.7386C26.3769 21.6665 26.0826 22.5703 25.5372 23.321C24.9919 24.0718 24.2233 24.631 23.3412 24.919C22.9003 25.0644 22.4389 25.1381 21.9746 25.1373H11.2317C11.3883 26.9879 11.5971 28.7815 11.8391 30.485H21.9746C22.4389 30.4841 22.9003 30.5578 23.3412 30.7033C24.2241 30.9915 24.9932 31.5515 25.5386 32.3032C26.0841 33.0548 26.3779 33.9597 26.3781 34.8885C26.3768 36.0555 25.9123 37.1743 25.0866 37.9991C24.261 38.8239 23.1417 39.2872 21.9746 39.2872H13.4761C14.1499 42.2196 14.7288 44.1746 14.8664 44.6349H21.9841C24.5687 44.6324 27.0468 43.6049 28.8748 41.7777C30.7028 39.9506 31.7315 37.473 31.7353 34.8885C31.7316 32.3161 30.7077 29.8502 28.8882 28.0318L28.6605 27.8135L28.8882 27.5905C30.707 25.7736 31.7309 23.3094 31.7353 20.7386C31.7277 18.1548 30.6961 15.6794 28.8664 13.8551C27.0367 12.0308 24.5584 11.0063 21.9746 11.0063H17.0824C16.6547 12.8678 15.9712 14.6611 15.0515 16.3351H21.9746Z" fill="#84C664" transform="matrix(1, 0, 0, 1, 700.963074, 227.08934)"/>
  <path d="M17.3054 5.61124C15.5647 7.05626 14.0683 8.77224 12.8734 10.6932L12.6789 11.0064C11.745 12.5544 11.0311 14.2249 10.5578 15.9698C10.5488 16.008 10.5257 16.0414 10.4932 16.0633C10.4606 16.0853 10.4211 16.0943 10.3823 16.0884C10.3441 16.0826 10.3095 16.0629 10.285 16.0332C10.2605 16.0034 10.2478 15.9656 10.2494 15.9271C10.3142 14.273 10.1546 12.6177 9.77489 11.0064C9.75116 10.902 9.72269 10.7976 9.69897 10.6932C8.79306 7.17426 6.99536 3.94819 4.47935 1.32642C4.22786 2.93975 3.34527 11.0207 9.26242 17.5072C9.27591 17.5201 9.28666 17.5355 9.294 17.5527C9.30134 17.5698 9.30512 17.5882 9.30512 17.6069C9.3471 21.4414 9.11558 25.2741 8.61234 29.0758C8.60684 29.109 8.59107 29.1397 8.56725 29.1635C8.54342 29.1874 8.51272 29.2031 8.47948 29.2086C8.44568 29.2146 8.41086 29.2089 8.3807 29.1925C8.35054 29.1762 8.32682 29.1501 8.3134 29.1185C6.73417 25.7228 4.27701 22.8102 1.19574 20.6817C1.26217 22.2049 1.89802 29.3273 7.69653 34.4804C7.71697 34.4985 7.73248 34.5215 7.74161 34.5473C7.75073 34.573 7.75319 34.6006 7.74873 34.6275C7.13873 38.0099 6.34673 41.3569 5.37618 44.6539H14.5864C14.4061 44.0466 13.8414 42.1106 13.2009 39.3062L13.1297 38.993C12.6219 36.7296 12.0668 33.93 11.616 30.8172C11.616 30.7128 11.5828 30.6084 11.5685 30.5041C11.3265 28.8006 11.094 27.0069 10.9659 25.1563L10.9374 24.8431C10.8473 23.6948 10.7761 22.5275 10.7334 21.346C10.7333 21.323 10.7379 21.3002 10.7469 21.279C10.7559 21.2578 10.769 21.2386 10.7856 21.2226C12.2876 19.9181 13.5694 18.3799 14.5817 16.6673C14.6434 16.5629 14.7051 16.4585 14.762 16.3542C15.6987 14.6783 16.3922 12.8777 16.8214 11.0064L16.8925 10.6932C17.2636 9.02591 17.423 7.31845 17.3671 5.61124" fill="#EBA129" transform="matrix(1, 0, 0, 1, 700.963074, 227.08934)"/>
  <path d="M32.0391 20.7577C32.0366 18.0892 30.9754 15.5308 29.0885 13.6439C27.2017 11.757 24.6432 10.6958 21.9747 10.6933H17.1442C17.5492 8.92361 17.7089 7.10662 17.6187 5.2934C17.6163 5.26601 17.6067 5.23974 17.5908 5.21725C17.575 5.19476 17.5535 5.17684 17.5286 5.16528C17.5049 5.15105 17.4779 5.14354 17.4503 5.14354C17.4227 5.14354 17.3956 5.15105 17.372 5.16528C15.4335 6.7039 13.7848 8.57589 12.5035 10.6933H10.0313C9.09318 6.98477 7.17192 3.59798 4.47006 0.889942C4.44887 0.871661 4.42341 0.859031 4.39603 0.853224C4.36866 0.847417 4.34026 0.848622 4.31347 0.856727C4.28801 0.866966 4.26531 0.883031 4.24718 0.903632C4.22905 0.924234 4.216 0.948798 4.20908 0.975354C4.20908 1.07026 2.33951 10.3517 8.98265 17.6734C9.02242 21.2913 8.81314 24.9077 8.3563 28.497C6.70141 25.1572 4.19365 22.3139 1.0868 20.2547C1.06317 20.2405 1.0361 20.233 1.00851 20.233C0.98092 20.233 0.953853 20.2405 0.930214 20.2547C0.905996 20.2687 0.885828 20.2887 0.871686 20.3128C0.857544 20.337 0.849916 20.3644 0.849548 20.3923C0.849548 20.473 0.849546 28.7959 7.39779 34.6561C6.77627 38.0676 5.96518 41.4419 4.9683 44.7632C4.95705 44.7852 4.95118 44.8096 4.95118 44.8343C4.95118 44.8591 4.95705 44.8835 4.9683 44.9055C4.98279 44.9245 5.00144 44.94 5.02283 44.9507C5.04421 44.9614 5.06776 44.967 5.09167 44.9672H21.951C24.6187 44.9647 27.1764 43.9042 29.0631 42.0183C30.9499 40.1325 32.0116 37.5752 32.0154 34.9076C32.0174 32.256 30.968 29.7118 29.0971 27.8326C30.9662 25.9524 32.0153 23.4089 32.0154 20.7577H32.0391ZM7.70148 34.6276C7.70593 34.6007 7.70348 34.5731 7.69435 34.5473C7.68522 34.5216 7.66972 34.4986 7.64928 34.4805C1.85077 29.3273 1.21492 22.2049 1.14849 20.6818C4.22976 22.8103 6.68692 25.7228 8.26614 29.1186C8.27956 29.1501 8.30329 29.1763 8.33345 29.1926C8.36361 29.209 8.39842 29.2147 8.43222 29.2087C8.46547 29.2032 8.49616 29.1875 8.51999 29.1636C8.54382 29.1398 8.55959 29.1091 8.56509 29.0759C9.06833 25.2742 9.29985 21.4415 9.25787 17.6069C9.25787 17.5883 9.25408 17.5699 9.24674 17.5527C9.2394 17.5356 9.22866 17.5201 9.21516 17.5073C3.32175 11.0207 4.21857 2.93983 4.47006 1.32649C6.98606 3.94827 8.78377 7.17433 9.68967 10.6933C9.7134 10.7977 9.74187 10.9021 9.7656 11.0065C10.1453 12.6178 10.3049 14.273 10.2401 15.9272C10.2385 15.9657 10.2512 16.0035 10.2757 16.0333C10.3002 16.063 10.3348 16.0827 10.373 16.0885C10.4118 16.0943 10.4514 16.0854 10.4839 16.0634C10.5164 16.0414 10.5395 16.0081 10.5485 15.9699C11.0213 14.2241 11.7369 12.5533 12.6743 11.0065C12.736 10.9021 12.7977 10.7977 12.8641 10.6933C14.0618 8.7716 15.5616 7.05558 17.3056 5.61132C17.3615 7.31853 17.2021 9.02599 16.8311 10.6933L16.7599 11.0065C16.332 12.8707 15.6418 14.6649 14.71 16.3353C14.6531 16.4396 14.5914 16.544 14.5297 16.6484C13.5174 18.361 12.2356 19.8992 10.7336 21.2037C10.717 21.2197 10.7039 21.2389 10.6949 21.2601C10.6859 21.2813 10.6813 21.3041 10.6814 21.3271C10.7241 22.5086 10.7953 23.6997 10.8854 24.8242L10.9139 25.1374C11.0658 26.988 11.2745 28.7817 11.5165 30.4852C11.5165 30.5895 11.5498 30.6939 11.564 30.7983C12.0385 33.9111 12.57 36.7107 13.0777 38.9741L13.1489 39.2873C13.7894 42.0917 14.3541 44.0324 14.5344 44.6351H5.32893C6.29948 41.338 7.09148 37.991 7.70148 34.6087V34.6276ZM12.3374 11.0065C11.6244 12.2067 11.0406 13.4792 10.596 14.8026C10.5667 13.5244 10.4077 12.2526 10.1215 11.0065H12.3374ZM31.7449 34.9076C31.7411 37.4922 30.7124 39.9697 28.8844 41.7969C27.0564 43.624 24.5783 44.6515 21.9937 44.654H14.8761C14.7385 44.1795 14.1596 42.2388 13.4858 39.3063H21.9842C23.1513 39.3063 24.2706 38.843 25.0963 38.0182C25.9219 37.1935 26.3864 36.0746 26.3877 34.9076C26.3875 33.9789 26.0937 33.074 25.5483 32.3223C25.0028 31.5706 24.2337 31.0106 23.3508 30.7224C22.9099 30.577 22.4485 30.5033 21.9842 30.5041H11.8629C11.6209 28.8006 11.3884 27.007 11.2556 25.1564H21.9985C22.4627 25.1573 22.9242 25.0836 23.3651 24.9381C24.2472 24.6502 25.0157 24.0909 25.5611 23.3402C26.1065 22.5894 26.4007 21.6856 26.4019 20.7577C26.4038 20.176 26.2905 19.5997 26.0687 19.062C25.8468 18.5243 25.5207 18.0358 25.1091 17.6247C24.6976 17.2136 24.2088 16.888 23.6708 16.6667C23.1329 16.4454 22.5564 16.3327 21.9747 16.3353H15.0516C15.9713 14.6613 16.6548 12.868 17.0825 11.0065H21.9795C24.5641 11.0103 27.0416 12.039 28.8688 13.867C30.6959 15.695 31.7234 18.1731 31.7259 20.7577C31.7207 23.3298 30.6971 25.7951 28.8789 27.6144L28.6511 27.8326L28.8789 28.0509C30.6984 29.8693 31.7223 32.3352 31.7259 34.9076" fill="#283539" transform="matrix(1, 0, 0, 1, 700.963074, 227.08934)"/>
  <path d="M 742.999 256.155 L 743.201 256.286 C 743.502 256.467 743.787 256.673 744.052 256.902 C 744.314 257.112 744.533 257.372 744.694 257.666 C 744.856 257.961 744.957 258.285 744.992 258.619 C 745.132 259.574 744.924 260.547 744.405 261.36 C 744.07 261.896 743.604 262.336 743.051 262.64 C 742.498 262.944 741.876 263.1 741.245 263.095 C 739.524 263.095 737.799 263.095 736.073 263.095 L 735.979 263.095 C 735.895 263.095 735.843 263.072 735.852 262.978 C 735.862 262.884 735.852 262.884 735.852 262.837 L 735.852 250.173 C 735.852 249.891 735.805 249.91 736.116 249.91 C 737.949 249.91 739.783 249.91 741.617 249.91 C 742.173 249.883 742.724 250.035 743.19 250.341 C 743.655 250.648 744.012 251.095 744.207 251.617 C 744.568 252.418 744.633 253.321 744.39 254.166 C 744.307 254.469 744.172 254.755 743.991 255.012 C 743.737 255.398 743.432 255.748 743.083 256.051 C 743.041 256.07 742.999 256.089 742.999 256.155 Z M 736.953 253.898 L 736.953 256.601 C 736.953 256.808 736.915 256.827 737.183 256.832 C 737.59 256.841 737.997 256.819 738.401 256.766 C 739.309 256.639 740.193 256.377 741.024 255.99 C 741.994 255.543 742.776 254.769 743.234 253.804 C 743.326 253.639 743.383 253.456 743.398 253.267 C 743.448 252.678 743.281 252.091 742.928 251.617 C 742.791 251.421 742.607 251.262 742.392 251.156 C 742.178 251.049 741.94 250.997 741.701 251.006 C 740.211 251.006 738.725 251.006 737.235 251.006 L 737.07 251.006 C 737.004 251.006 736.971 251.006 736.971 251.1 L 736.971 253.907 L 736.953 253.898 Z M 739.209 262.004 L 741.208 262.004 C 741.6 262.01 741.989 261.921 742.341 261.746 C 742.805 261.537 743.199 261.199 743.475 260.772 C 743.752 260.345 743.9 259.847 743.902 259.338 C 743.928 258.982 743.868 258.625 743.727 258.298 C 743.585 257.97 743.366 257.682 743.088 257.457 C 742.76 257.203 742.413 256.975 742.049 256.775 C 742.007 256.742 741.955 256.724 741.901 256.724 C 741.847 256.724 741.795 256.742 741.753 256.775 C 741.272 257.052 740.756 257.266 740.22 257.41 C 739.23 257.683 738.206 257.814 737.178 257.801 C 736.953 257.801 736.953 257.801 736.953 258.007 L 736.953 261.812 C 736.953 262.004 736.953 262.009 737.145 262.009 L 739.209 262.004 Z" fill="#000"/>
  <path d="M 752.599 260.935 L 753.35 261.606 C 753.403 261.653 753.398 261.69 753.35 261.742 C 753.011 262.187 752.58 262.556 752.085 262.826 C 751.59 263.096 751.042 263.261 750.478 263.309 C 749.756 263.385 749.027 263.264 748.371 262.957 C 747.716 262.65 747.161 262.171 746.768 261.573 C 746.105 260.65 745.747 259.549 745.741 258.42 C 745.736 257.291 746.084 256.188 746.739 255.259 C 747.355 254.368 748.298 253.746 749.372 253.523 C 750.158 253.355 750.978 253.442 751.708 253.772 C 752.348 254.033 752.918 254.434 753.374 254.945 C 753.831 255.455 754.161 256.062 754.341 256.718 C 754.447 257.064 754.48 257.428 754.437 257.787 C 754.41 258.07 754.283 258.335 754.079 258.537 C 753.875 258.739 753.605 258.865 753.317 258.894 C 753.158 258.918 752.998 258.93 752.838 258.932 L 748.17 258.932 C 748.075 258.932 747.979 258.932 747.883 258.932 C 747.76 258.948 747.643 258.991 747.54 259.058 C 747.436 259.125 747.35 259.214 747.286 259.318 C 747.223 259.422 747.184 259.539 747.173 259.659 C 747.162 259.78 747.179 259.902 747.223 260.016 C 747.455 260.599 747.82 261.124 748.29 261.55 C 748.819 261.999 749.5 262.239 750.2 262.223 C 750.9 262.207 751.569 261.937 752.077 261.465 C 752.254 261.301 752.417 261.123 752.599 260.935 Z M 746.887 258.12 C 747.37 257.854 747.926 257.743 748.477 257.801 L 752.857 257.801 C 752.937 257.806 753.017 257.806 753.096 257.801 C 753.302 257.801 753.345 257.74 753.345 257.543 C 753.351 257.34 753.322 257.137 753.259 256.943 C 753.101 256.428 752.822 255.957 752.444 255.567 C 752.067 255.177 751.602 254.878 751.086 254.696 C 750.721 254.556 750.327 254.503 749.937 254.541 C 749.239 254.602 748.585 254.905 748.094 255.395 C 747.354 256.129 746.923 257.108 746.887 258.139 L 746.887 258.12 Z" fill="#000"/>
  <path d="M 782.267 249.907 L 790.724 249.907 C 790.724 250.241 790.724 250.561 790.724 250.881 C 790.724 250.961 790.691 250.994 790.61 250.994 L 783.61 250.994 C 783.32 250.994 783.353 250.966 783.353 251.239 L 783.353 256.155 C 783.338 256.222 783.338 256.291 783.353 256.358 L 783.401 256.358 C 783.778 256.065 784.25 255.917 784.73 255.939 L 789.233 255.939 C 789.304 255.939 789.357 255.939 789.361 256.033 C 789.361 256.362 789.404 256.692 789.423 257.012 C 789.337 257.044 789.243 257.054 789.152 257.04 C 787.746 257.04 786.34 257.04 784.935 257.04 C 784.706 257.019 784.476 257.058 784.268 257.153 C 784.059 257.248 783.88 257.396 783.748 257.581 C 783.629 257.746 783.439 257.878 783.362 258.052 C 783.322 258.258 783.322 258.471 783.362 258.677 C 783.362 260.061 783.362 261.439 783.362 262.818 C 783.362 262.874 783.362 262.926 783.362 262.983 C 783.362 263.039 783.339 263.096 783.253 263.096 C 782.957 263.096 782.667 263.096 782.371 263.096 C 782.276 263.096 782.248 263.053 782.252 262.969 C 782.257 262.884 782.252 262.86 782.252 262.804 C 782.252 258.591 782.252 254.382 782.252 250.175 C 782.24 250.086 782.245 249.995 782.267 249.907 Z" fill="#000"/>
  <path d="M 772.863 253.675 C 773.214 253.675 773.551 253.675 773.887 253.675 C 774.021 253.675 774.041 253.761 774.074 253.853 C 774.219 254.28 774.367 254.712 774.512 255.145 L 776.76 261.72 C 776.777 261.796 776.81 261.868 776.857 261.931 C 776.938 261.652 777.02 261.383 777.097 261.114 L 779.13 253.973 C 779.13 253.91 779.168 253.848 779.182 253.79 C 779.187 253.759 779.203 253.73 779.228 253.709 C 779.253 253.689 779.285 253.678 779.317 253.68 L 780.34 253.68 C 780.369 253.752 780.369 253.833 780.34 253.906 L 777.227 264.832 C 777.149 265.142 777 265.429 776.792 265.671 C 776.583 265.913 776.321 266.102 776.025 266.224 C 775.759 266.335 775.473 266.392 775.184 266.393 L 771.821 266.393 C 771.652 266.393 771.648 266.393 771.648 266.22 L 771.648 265.408 C 771.648 265.245 771.648 265.24 771.825 265.24 L 774.228 265.269 C 774.512 265.269 774.8 265.269 775.088 265.269 C 775.327 265.289 775.565 265.222 775.758 265.08 C 775.951 264.937 776.085 264.73 776.136 264.496 C 776.231 264.315 776.28 264.114 776.28 263.91 C 776.28 263.706 776.231 263.504 776.136 263.324 L 772.935 253.91 C 772.898 253.837 772.874 253.757 772.863 253.675 Z" fill="#000"/>
  <path d="M 755.72 263.095 L 755.72 262.836 C 755.72 260.87 755.72 258.904 755.72 256.935 C 755.725 256.683 755.714 256.43 755.687 256.18 C 755.642 255.82 755.477 255.487 755.219 255.235 C 754.976 254.999 754.709 254.795 754.447 254.583 C 754.395 254.536 754.339 254.493 754.283 254.451 C 754.227 254.408 754.189 254.356 754.255 254.28 C 754.437 254.063 754.615 253.846 754.788 253.624 C 754.859 253.534 754.905 253.553 754.98 253.624 C 755.321 253.873 755.646 254.143 755.954 254.432 C 756.053 254.531 756.113 254.526 756.226 254.432 C 756.843 253.972 757.558 253.664 758.314 253.534 C 759.06 253.394 759.826 253.41 760.566 253.581 C 761.212 253.735 761.797 254.08 762.246 254.573 C 762.695 255.066 762.987 255.683 763.085 256.345 C 763.142 256.656 763.171 256.973 763.169 257.29 C 763.169 259.132 763.169 260.97 763.169 262.812 L 763.169 262.977 C 763.169 263.048 763.141 263.077 763.076 263.077 L 762.139 263.077 C 762.069 263.077 762.041 263.048 762.041 262.977 C 762.041 262.907 762.041 262.85 762.041 262.788 C 762.041 260.932 762.041 259.075 762.041 257.219 C 762.046 256.863 761.993 256.509 761.886 256.17 C 761.764 255.748 761.522 255.372 761.188 255.088 C 760.855 254.805 760.446 254.628 760.014 254.578 C 759.455 254.478 758.882 254.491 758.329 254.618 C 757.776 254.744 757.253 254.981 756.792 255.315 C 756.624 255.433 756.624 255.433 756.675 255.632 C 756.76 255.976 756.801 256.33 756.797 256.685 L 756.797 262.987 C 756.797 263.048 756.769 263.077 756.713 263.077 L 755.72 263.095 Z" fill="#000"/>
  <path d="M 763.405 254.341 L 764.09 253.52 C 764.455 253.798 764.815 254.058 765.141 254.355 C 765.328 254.525 765.328 254.525 765.549 254.379 C 766.171 253.947 766.884 253.656 767.635 253.53 C 768.383 253.397 769.151 253.411 769.894 253.572 C 770.532 253.711 771.115 254.03 771.572 254.49 C 772.029 254.95 772.339 255.531 772.465 256.163 C 772.552 256.547 772.594 256.939 772.589 257.333 L 772.589 262.835 C 772.587 262.875 772.587 262.914 772.589 262.953 C 772.589 263.043 772.56 263.081 772.465 263.081 L 771.577 263.081 C 771.481 263.081 771.453 263.043 771.457 262.953 C 771.462 262.864 771.457 262.845 771.457 262.788 L 771.457 257.262 C 771.469 256.875 771.407 256.49 771.275 256.125 C 771.142 255.722 770.894 255.364 770.561 255.095 C 770.228 254.826 769.823 254.656 769.395 254.605 C 768.823 254.506 768.236 254.52 767.669 254.647 C 767.102 254.774 766.567 255.012 766.095 255.346 C 765.918 255.469 765.923 255.469 765.975 255.644 C 766.069 255.995 766.112 256.357 766.105 256.72 L 766.105 262.878 C 766.102 262.917 766.102 262.956 766.105 262.996 C 766.105 263.062 766.076 263.095 766.004 263.095 L 765.045 263.095 C 765.033 263.096 765.021 263.095 765.01 263.092 C 764.999 263.088 764.989 263.082 764.98 263.073 C 764.972 263.065 764.966 263.055 764.962 263.044 C 764.958 263.033 764.957 263.021 764.959 263.01 L 764.959 262.835 C 764.959 260.806 764.959 258.779 764.959 256.753 C 764.959 256.616 764.959 256.484 764.959 256.351 C 764.945 256.107 764.877 255.867 764.761 255.651 C 764.644 255.434 764.481 255.245 764.282 255.096 C 764.049 254.914 763.814 254.725 763.577 254.53 C 763.506 254.481 763.447 254.416 763.405 254.341 Z" fill="#000"/>
  <path d="M 792.608 258.4 L 792.608 262.799 C 792.608 262.856 792.608 262.914 792.608 262.966 C 792.608 263.019 792.588 263.095 792.507 263.095 C 792.255 263.095 792.008 263.095 791.757 263.095 C 791.684 263.095 791.663 263.057 791.667 262.981 L 791.667 253.962 C 791.667 253.632 791.631 253.68 791.919 253.675 L 792.385 253.675 C 792.636 253.675 792.604 253.675 792.608 253.953 L 792.608 258.4 Z" fill="#000"/>
  <path d="M 792.595 250.087 C 792.87 249.722 793.176 249.382 793.509 249.072 C 793.551 248.985 793.561 248.885 793.537 248.791 C 793.535 248.768 793.535 248.744 793.537 248.721 C 793.526 248.45 793.497 248.179 793.45 247.912 C 793.423 247.771 793.349 247.753 793.244 247.842 L 793.162 247.926 C 792.744 248.347 792.394 248.834 792.125 249.367 C 791.578 250.48 791.347 251.728 791.457 252.969 C 791.5 252.919 791.526 252.857 791.531 252.791 C 791.688 251.821 792.051 250.898 792.595 250.087 Z" fill="#000"/>
  <path d="M 794.746 248.29 C 794.697 248.316 794.65 248.346 794.605 248.378 C 794.289 248.572 793.991 248.797 793.717 249.05 C 793.231 249.504 792.814 250.032 792.481 250.615 C 792.089 251.41 791.819 252.264 791.682 253.145 C 791.682 253.238 791.63 253.355 791.714 253.418 C 791.799 253.482 791.902 253.389 791.982 253.335 C 793.228 252.542 794.174 251.328 794.661 249.899 C 794.82 249.426 794.921 248.935 794.962 248.436 C 794.972 248.261 794.892 248.222 794.746 248.29 Z" fill="#000"/>
</svg>