<svg xmlns="http://www.w3.org/2000/svg" version="1.1" id="prefix__Layer_1" x="0" y="0" xml:space="preserve" viewBox="211.7 230 176.9 137.7"><style>.prefix__st0{fill:#fff}.prefix__st1{fill:#32e4b6}</style><path class="prefix__st0" d="M298.7 271.9h2.8v50.2h-2.8z"/><path class="prefix__st0" d="M366.6 322.1h-2.8v-7.8c0-8.5-6.9-15.4-15.4-15.4H317c-10 0-18.2-8.2-18.2-18.2V272h2.8v8.7c0 8.5 6.9 15.4 15.4 15.4h31.4c10 0 18.2 8.2 18.2 18.2v7.8z"/><path class="prefix__st0" d="M236.6 322.1h-2.8v-7.8c0-10.1 8.2-18.2 18.2-18.2h31.4c8.5 0 15.4-6.9 15.4-15.4V272h2.8v8.7c0 10.1-8.2 18.2-18.2 18.2H252c-8.5 0-15.4 6.9-15.4 15.4v7.8z"/><path class="prefix__st1" d="M300.2 367.7c-13 0-23.5-10.5-23.5-23.5s10.5-23.5 23.5-23.5 23.5 10.5 23.5 23.5-10.6 23.5-23.5 23.5zm0-44.2c-11.4 0-20.7 9.3-20.7 20.7s9.3 20.7 20.7 20.7c11.4 0 20.7-9.3 20.7-20.7s-9.3-20.7-20.7-20.7z"/><path class="prefix__st0" d="M300.2 362.1c-9.9 0-18-8.1-18-18s8.1-18 18-18 18 8.1 18 18-8.1 18-18 18zm0-33.1c-8.3 0-15.1 6.8-15.1 15.1s6.8 15.1 15.1 15.1 15.1-6.8 15.1-15.1-6.8-15.1-15.1-15.1z"/><path class="prefix__st0" d="M300.2 354.9l-10.7-10.7 10.7-10.7 10.7 10.7-10.7 10.7zm-6.8-10.8l6.7 6.7 6.7-6.7-6.7-6.7-6.7 6.7z"/><path class="prefix__st1" d="M365.1 367.7c-13 0-23.5-10.5-23.5-23.5s10.5-23.5 23.5-23.5 23.5 10.5 23.5 23.5-10.5 23.5-23.5 23.5zm0-44.2c-11.4 0-20.7 9.3-20.7 20.7s9.3 20.7 20.7 20.7c11.4 0 20.7-9.3 20.7-20.7s-9.3-20.7-20.7-20.7z"/><path class="prefix__st0" d="M365.1 362.1c-9.9 0-18-8.1-18-18s8.1-18 18-18 18 8.1 18 18-8.1 18-18 18zm0-33.1c-8.3 0-15.1 6.8-15.1 15.1s6.8 15.1 15.1 15.1 15.1-6.8 15.1-15.1-6.7-15.1-15.1-15.1z"/><path class="prefix__st0" d="M365.1 354.9l-10.7-10.7 10.7-10.7 10.7 10.7-10.7 10.7zm-6.7-10.8l6.7 6.7 6.7-6.7-6.7-6.7-6.7 6.7z"/><g><path class="prefix__st1" d="M235.2 367.7c-13 0-23.5-10.5-23.5-23.5s10.5-23.5 23.5-23.5 23.5 10.5 23.5 23.5-10.6 23.5-23.5 23.5zm0-44.2c-11.4 0-20.7 9.3-20.7 20.7s9.3 20.7 20.7 20.7c11.4 0 20.7-9.3 20.7-20.7s-9.3-20.7-20.7-20.7z"/><path class="prefix__st0" d="M235.2 362.1c-9.9 0-18-8.1-18-18s8.1-18 18-18 18 8.1 18 18-8.1 18-18 18zm0-33.1c-8.3 0-15.1 6.8-15.1 15.1s6.8 15.1 15.1 15.1 15.1-6.8 15.1-15.1-6.8-15.1-15.1-15.1z"/><path class="prefix__st0" d="M235.2 354.9l-10.7-10.7 10.7-10.7 10.7 10.7-10.7 10.7zm-6.7-10.8l6.7 6.7 6.7-6.7-6.7-6.7-6.7 6.7z"/></g><g><path class="prefix__st1" d="M336.3 273.3H264V236h72.2v37.3zm-69.4-2.9h66.5v-31.6h-66.5v31.6z"/><path class="prefix__st0" d="M300.2 261.5c-3.7 0-6.8-3-6.8-6.8 0-3.7 3-6.8 6.8-6.8s6.8 3 6.8 6.8c-.1 3.7-3.1 6.8-6.8 6.8zm0-10.8c-2.2 0-4 1.8-4 4s1.8 4 4 4 4-1.8 4-4c-.1-2.2-1.9-4-4-4z"/><path class="prefix__st0" d="M326.1 267.6h-51.9v-1.4c0-1.7-1.4-3.1-3.1-3.1h-1.4v-16.8h1.4c1.7 0 3.1-1.4 3.1-3.1v-1.4h51.9v1.4c0 1.7 1.4 3.1 3.1 3.1h1.4V263h-1.4c-1.7 0-3.1 1.4-3.1 3.1v1.5zm-49.2-2.8h46.5c.5-2.1 2.2-3.8 4.3-4.4v-11.5c-2.1-.5-3.8-2.2-4.3-4.4h-46.5c-.5 2.1-2.2 3.8-4.3 4.4v11.5c2.1.5 3.8 2.2 4.3 4.4z"/><path class="prefix__st1" d="M342.3 267.2h-7.5v-2.8h4.7v-31.6h-66.6v4.7h-2.8V230h72.2z"/></g></svg>