<svg xmlns="http://www.w3.org/2000/svg" version="1.1" id="prefix__Layer_1" x="0" y="0" xml:space="preserve" viewBox="236 236 128 128"><style>.prefix__st0{fill:#fff}</style><path class="prefix__st0" d="M298.2 338h-.3l-6.5-1.6c-.4-.1-.7-.3-.9-.6-.2-.3-.3-.7-.2-1.1l2.3-9.2-2.4-.6-2.3 9.2c-.1.4-.3.7-.6.9-.3.2-.7.3-1.1.2l-6.5-1.6c-.8-.2-1.2-1-1-1.7l2.3-9.4-.6-.1c-.9-.2-1.8-.5-2.7-.7l-8.4-2.1c-.4-.1-.7-.4-.9-.7-.2-.4-.2-.8 0-1.2l3.2-7.4c.3-.6 1-1 1.7-.8 1.8.5 3.9 1 4.4 1.1h.3c.5.1.9.2 1.3-.6l7.2-28.9c0-1.2-.6-1.8-1.9-2.2-.1 0-.2-.1-.3-.1-.5-.2-2.6-.6-4.4-1.1-.4-.1-.7-.3-.9-.6-.2-.3-.3-.7-.2-1.1l1.7-6.9c.1-.4.3-.7.6-.9s.7-.3 1.1-.2l8.9 2.2c.1 0 .2.1.3.1.8.2 1.6.4 2.5.6l2.3-9.3c.2-.8 1-1.2 1.7-1l6.5 1.6c.8.2 1.2 1 1 1.7l-2.2 9 2.4.6 2.2-9c.1-.4.3-.7.6-.9s.7-.2 1.1-.2l6.5 1.6c.8.2 1.2 1 1 1.7l-2.3 9.4c14.1 5.3 13.1 13.1 12.7 15.9v.1c-.7 4.6-2.9 7.9-6.4 9.6 5.1 3.7 6.4 8.9 4 15.8-3.9 11.3-13.7 11.5-23.1 9.9l-2.4 9.4c-.1.7-.7 1.2-1.3 1.2zm-4.8-4.1l3.7.9 2.3-9.4c.2-.7.9-1.2 1.6-1 12.5 2.4 18.4.2 21.2-7.8 2.3-6.6.7-10.9-5.3-14-.5-.3-.8-.8-.8-1.4.1-.6.5-1.1 1.1-1.2 4.1-.9 6.5-3.6 7.2-8.2v-.1c.9-6-2.8-10.2-12-13.3-.7-.2-1.1-1-.9-1.7l2.3-9.3-3.7-.9-2.2 9c-.1.4-.3.7-.6.9-.3.2-.7.3-1.1.2-1.7-.4-3.4-.8-5.2-1.2-.4-.1-.7-.3-.9-.6-.2-.3-.3-.7-.2-1.1l2.3-9-3.7-.9-2.3 9.2c-.2.7-.9 1.2-1.7 1-1.4-.3-2.8-.6-4.2-1-.1 0-.2-.1-.3-.1l-7.2-1.8-1 4.1c1.7.4 2.7.6 3.3.9 2.7.7 4.2 2.6 4.1 5.2v.3l-7.3 29.1c0 .1 0 .1-.1.2-.8 2-2.6 2.9-4.6 2.4-.7-.1-1.8-.4-3.5-.9l-2.1 4.8 6.8 1.7c.9.2 1.8.5 2.7.7l1.9.5c.8.2 1.2 1 1 1.7l-2.3 9.4 3.7.9 2.3-9.3c.1-.4.3-.7.7-.9s.7-.2 1.1-.1c1.8.5 3.5.9 5.1 1.3.4.1.7.3.9.6s.3.7.2 1.1l-2.3 9.1zm9.8-15.1c-4 0-8.3-1.1-11-1.9-.5-.1-.9-.2-1.2-.3-.4-.1-.7-.3-.9-.6s-.3-.7-.2-1.1l3.6-14.2c.1-.4.3-.7.6-.9.3-.2.7-.3 1.1-.2.4.1 1 .2 1.6.4 4.6 1 12.2 2.7 15 7.3 1.1 1.7 1.3 3.6.8 5.7-.5 2-1.6 3.5-3.3 4.5-1.7.9-3.8 1.3-6.1 1.3zm-10.2-4.6c3.7 1 11.2 2.9 14.9.8 1-.6 1.6-1.5 2-2.7.3-1.3.2-2.5-.5-3.5-2.2-3.6-9.4-5.2-13.2-6-.1 0-.2 0-.2-.1l-3 11.5zm13.1-16.6c-3.3 0-6.7-.9-9-1.5-.4-.1-.7-.2-1-.3-.8-.2-1.2-1-1-1.7l3.2-12.9c.1-.4.3-.7.6-.9.3-.2.7-.2 1.1-.2.4.1.8.2 1.3.3 3.8.8 10 2.2 12.5 6.2 1 1.6 1.2 3.4.7 5.4-.5 1.9-1.5 3.3-3.1 4.3-1.5 1-3.3 1.3-5.3 1.3zm-7.9-4.1c3 .8 8.8 2.3 11.8.5.9-.5 1.5-1.4 1.8-2.5.3-1.3.2-2.3-.4-3.3-1.8-3-7.6-4.2-10.7-4.9l-2.5 10.2zm15-1.7z"/><path d="M300 364c-35.3 0-64-28.7-64-64s28.7-64 64-64 64 28.7 64 64-28.7 64-64 64zm0-125.2c-33.7 0-61.2 27.5-61.2 61.2 0 33.8 27.4 61.2 61.2 61.2s61.2-27.5 61.2-61.2c0-33.8-27.5-61.2-61.2-61.2z" fill="#32e4b6"/><path class="prefix__st0" d="M300 355.8c-30.7 0-55.7-25-55.7-55.8 0-30.8 25-55.8 55.7-55.8 30.7 0 55.7 25 55.7 55.8 0 30.8-25 55.8-55.7 55.8zm0-108.8c-29.2 0-52.9 23.8-52.9 53s23.7 53 52.9 53 52.9-23.8 52.9-53-23.7-53-52.9-53z"/></svg>