<svg xmlns="http://www.w3.org/2000/svg" version="1.1" id="prefix__Layer_1" x="0" y="0" xml:space="preserve" viewBox="217.1 241.1 165.8 117.9"><style>.prefix__st0{fill:#32e4b6}.prefix__st1{fill:#fff}</style><path class="prefix__st0" d="M245.2 282.8c-.5-2.4-.7-4.8-.7-7 0-19.1 15.5-34.7 34.6-34.7 18.6 0 34.1 15.2 34.5 33.9l-2.8.1c-.4-17.1-14.6-31.1-31.7-31.1-17.5 0-31.7 14.3-31.7 31.9 0 2.1.2 4.3.7 6.5l-2.9.4z"/><path class="prefix__st1" d="M253.7 282.6c-.6-2.3-.9-4.6-.9-6.9 0-14.5 11.8-26.4 26.2-26.4 13 0 24.1 9.7 26 22.6l-2.8.4c-1.6-11.5-11.6-20.2-23.2-20.2-12.9 0-23.4 10.6-23.4 23.5 0 2.1.3 4.2.8 6.2l-2.7.8z"/><path class="prefix__st1" d="M275.8 282.3l-2.8-.5 1.7-8.6c-2-1.4-3.2-3.7-3.2-6.2 0-4.2 3.4-7.6 7.6-7.6 4.2 0 7.6 3.4 7.6 7.6 0 2.5-1.2 4.8-3.2 6.2l1.1 5.6-2.8.5-1.5-7.7 1-.5c1.6-.8 2.6-2.4 2.6-4.2 0-2.6-2.1-4.8-4.8-4.8-2.6 0-4.8 2.1-4.8 4.8 0 1.8 1 3.4 2.6 4.2l1 .5-2.1 10.7z"/><path class="prefix__st0" d="M302.5 272.1h2.8v85.4h-2.8zM251.7 350.1c-19.1 0-34.6-15.6-34.6-34.7s15.5-34.7 34.6-34.7c7.4 0 14.5 2.3 20.5 6.8l-1.7 2.3c-5.5-4.1-12-6.2-18.8-6.2-17.5 0-31.7 14.3-31.7 31.9 0 17.6 14.2 31.9 31.7 31.9 9.4 0 18.3-4.2 24.3-11.4l2.2 1.8c-6.6 7.7-16.3 12.3-26.5 12.3z"/><path class="prefix__st1" d="M251.7 341.7c-14.5 0-26.3-11.8-26.3-26.4s11.8-26.4 26.3-26.4c8.2 0 15.8 3.8 20.8 10.3l-2.2 1.7c-4.5-5.9-11.2-9.2-18.5-9.2-12.9 0-23.4 10.6-23.4 23.5s10.5 23.5 23.4 23.5c8.3 0 16-4.5 20.2-11.7l2.5 1.4c-4.8 8.3-13.5 13.3-22.8 13.3z"/><path class="prefix__st0" d="M360 305c-4.1 0-7.4-3.3-7.4-7.4s3.3-7.4 7.4-7.4c4.1 0 7.4 3.3 7.4 7.4s-3.3 7.4-7.4 7.4zm0-12c-2.5 0-4.6 2.1-4.6 4.6s2.1 4.6 4.6 4.6 4.6-2.1 4.6-4.6-2-4.6-4.6-4.6z"/><path class="prefix__st0" d="M336.4 296.1H354v2.8h-17.6zM356.2 345.8c-4.1 0-7.4-3.3-7.4-7.4s3.3-7.4 7.4-7.4c4.1 0 7.4 3.3 7.4 7.4s-3.3 7.4-7.4 7.4zm0-12c-2.5 0-4.6 2.1-4.6 4.6 0 2.5 2.1 4.6 4.6 4.6s4.6-2.1 4.6-4.6c0-2.5-2.1-4.6-4.6-4.6z"/><path class="prefix__st0" d="M329.5 337h20.7v2.8h-20.7z"/><g><path class="prefix__st0" d="M375.5 325.4c-4.1 0-7.4-3.3-7.4-7.4s3.3-7.4 7.4-7.4c4.1 0 7.4 3.3 7.4 7.4s-3.3 7.4-7.4 7.4zm0-12c-2.5 0-4.6 2.1-4.6 4.6s2.1 4.6 4.6 4.6 4.6-2.1 4.6-4.6-2.1-4.6-4.6-4.6z"/><path class="prefix__st0" d="M336.3 316.6h33.1v2.8h-33.1z"/></g><g id="prefix__Shield_3_00000057116247564034952880000008760357920940747417_"><path class="prefix__st0" d="M303.9 359l-.4-.1c-.3-.1-33.5-10.9-33.5-43.1v-33.7l33.9-11.5 33.9 11.5v33.7c0 32-33.2 43-33.5 43.1l-.4.1zm-31.1-74.9v31.7c0 28.2 27.3 38.9 31.1 40.2 3.8-1.4 31.1-12.2 31.1-40.2v-31.6l-31.1-10.6-31.1 10.5z"/></g><g><path class="prefix__st1" d="M251.7 332.2c-4.1 0-7.4-3.3-7.4-7.4s3.3-7.4 7.4-7.4 7.4 3.3 7.4 7.4-3.3 7.4-7.4 7.4zm0-12c-2.5 0-4.6 2.1-4.6 4.6 0 2.5 2.1 4.6 4.6 4.6s4.6-2.1 4.6-4.6c0-2.6-2.1-4.6-4.6-4.6z"/><path class="prefix__st1" d="M250.3 298.6h2.8v20.2h-2.8z"/><path class="prefix__st1" d="M246.3 301.7h5.4v2.8h-5.4zM246.3 307h5.4v2.8h-5.4z"/></g></svg>