<svg xmlns="http://www.w3.org/2000/svg" version="1.1" id="prefix__Layer_1" x="0" y="0" xml:space="preserve" viewBox="251.3 236 97.5 128"><style>.prefix__st0{fill:#32e4b6}.prefix__st1{fill:#fff}</style><path class="prefix__st0" d="M348.8 364h-88.9v-10.1h2.8v7.3h83.2V247.5h-7.2v-2.8h10.1z"/><path class="prefix__st0" d="M340.1 355.3h-88.8v-96.5l22.8-22.8h66v119.3zm-86-2.8h83.2V238.8h-62L254.1 260v92.5z"/><path class="prefix__st0" d="M276.1 260.8h-23.4V258h20.5v-20.6h2.9z"/><path class="prefix__st1" d="M295.7 310.3c-13.2 0-24-10.8-24-24s10.8-24 24-24 24 10.8 24 24-10.8 24-24 24zm0-45.2c-11.7 0-21.2 9.5-21.2 21.2s9.5 21.2 21.2 21.2 21.2-9.5 21.2-21.2-9.6-21.2-21.2-21.2z"/><path class="prefix__st1" d="M294.2 263.7h2.8v22.6h-2.8z"/><path class="prefix__st1" d="M295.7 284.9h22.6v2.8h-22.6z"/><path transform="rotate(-44.96 287.661 294.264)" class="prefix__st1" d="M276.4 292.8H299v2.8h-22.6z"/><g><path class="prefix__st1" d="M268.8 323.4h53.8v2.8h-53.8z"/></g><g><path class="prefix__st1" d="M268.8 337h33v2.8h-33z"/></g></svg>