<svg xmlns="http://www.w3.org/2000/svg" xmlns:xlink="http://www.w3.org/1999/xlink" version="1.1" id="Layer_1" x="0px" y="0px" style="enable-background:new 0 0 600 600;" xml:space="preserve" viewBox="228.3 236.8 143.7 124"><style type="text/css">	.st0{fill:#FFFFFF;}	.st1{fill:#32E4B6;}</style><g>	<g>		<g>			<rect x="301.1" y="314.3" class="st0" width="49.9" height="2.8"></rect>		</g>		<g>			<path class="st0" d="M315.8,317.1h-14.7v-2.8h14.7c4.8,0,8.7-3.9,8.7-8.7v-13.5c0-6.4,5.2-11.6,11.6-11.6h14.8v2.8h-14.8     c-4.8,0-8.8,3.9-8.8,8.7v13.5C327.4,312,322.2,317.1,315.8,317.1z"></path>		</g>		<g>			<rect x="275.2" y="348.1" class="st0" width="41" height="2.8"></rect>		</g>		<g>			<path class="st0" d="M241,305.9h-2.8v-13.9c0-6.4,5.2-11.6,11.6-11.6h31.5v2.8h-31.5c-4.8,0-8.8,3.9-8.8,8.8V305.9z"></path>		</g>		<g>			<path class="st0" d="M281.3,283.3h-5.7c-6.4,0-11.6-5.2-11.6-11.6v-13.8h2.8v13.8c0,4.8,3.9,8.8,8.8,8.8h5.7V283.3z"></path>		</g>		<g>			<path class="st0" d="M292.6,272.1h-2.8v-13.8c0-6.4,5.2-11.6,11.7-11.6h14.7v2.8h-14.7c-4.9,0-8.8,4-8.8,8.8V272.1z"></path>		</g>	</g>	<g>		<g>			<path class="st1" d="M291.2,326.9C291.2,326.9,291.2,326.9,291.2,326.9c-6.2,0-11.3-5-11.3-11.2c0-3,1.2-5.8,3.3-7.9     c2.1-2.1,5-3.3,8-3.3c0,0,0,0,0,0c6.2,0,11.3,5,11.3,11.2c0,3-1.2,5.8-3.3,7.9C297,325.8,294.2,326.9,291.2,326.9z M291.2,307.4     c-2.3,0-4.4,0.9-6,2.5c-1.6,1.6-2.5,3.7-2.5,5.9c0,4.6,3.8,8.4,8.5,8.4c0,0,0,0,0,0c2.3,0,4.4-0.9,6-2.5c1.6-1.6,2.5-3.7,2.5-5.9     C299.6,311.1,295.8,307.4,291.2,307.4L291.2,307.4C291.2,307.4,291.2,307.4,291.2,307.4z"></path>		</g>		<g>			<path class="st1" d="M291.2,293.1c-3,0-5.8-1.2-8-3.3c-2.1-2.1-3.3-4.9-3.3-7.9c0-6.2,5.1-11.2,11.3-11.2c0,0,0,0,0,0     c3,0,5.8,1.2,8,3.3c2.1,2.1,3.3,4.9,3.3,7.9C302.5,288.1,297.4,293.1,291.2,293.1L291.2,293.1     C291.2,293.1,291.2,293.1,291.2,293.1z M291.2,273.5C291.2,273.5,291.2,273.5,291.2,273.5c-4.7,0-8.5,3.8-8.5,8.4     c0,2.2,0.9,4.3,2.5,5.9c1.6,1.6,3.7,2.5,6,2.5c0,0,0,0,0,0l0,0c4.7,0,8.5-3.8,8.5-8.4c0-2.2-0.9-4.3-2.5-5.9     C295.6,274.4,293.5,273.5,291.2,273.5z"></path>		</g>		<g>			<path class="st1" d="M239.6,326.9c-3,0-5.8-1.2-8-3.3c-2.1-2.1-3.3-4.9-3.3-7.9c0-6.2,5.1-11.2,11.3-11.2c0,0,0,0,0,0     c3,0,5.8,1.2,8,3.3c2.1,2.1,3.3,4.9,3.3,7.9C250.9,321.9,245.8,326.9,239.6,326.9L239.6,326.9     C239.6,326.9,239.6,326.9,239.6,326.9z M239.6,307.4C239.6,307.4,239.6,307.4,239.6,307.4c-4.7,0-8.5,3.8-8.5,8.4     c0,2.2,0.9,4.3,2.5,5.9c1.6,1.6,3.7,2.5,6,2.5c0,0,0,0,0,0l0,0c4.7,0,8.5-3.8,8.5-8.4c0-2.2-0.9-4.3-2.5-5.9     C244,308.2,241.9,307.4,239.6,307.4z"></path>		</g>		<g>			<path class="st1" d="M360.8,327C360.8,327,360.8,327,360.8,327c-6.2,0-11.2-5.1-11.2-11.3v0c0-3,1.2-5.8,3.3-8     c2.1-2.1,4.9-3.3,7.9-3.3c0,0,0,0,0,0c6.2,0,11.2,5.1,11.2,11.3c0,3-1.2,5.8-3.3,8C366.6,325.8,363.8,327,360.8,327z      M352.4,315.7c0,4.7,3.8,8.4,8.4,8.4h0c2.2,0,4.3-0.9,5.9-2.5c1.6-1.6,2.5-3.7,2.5-6c0-4.7-3.8-8.4-8.4-8.4c0,0,0,0,0,0     c-2.2,0-4.3,0.9-5.9,2.5C353.2,311.4,352.4,313.5,352.4,315.7L352.4,315.7z"></path>		</g>		<g>			<path class="st1" d="M360.8,293.2C360.8,293.2,360.8,293.2,360.8,293.2c-6.2,0-11.2-5.1-11.2-11.3l0,0c0-3,1.2-5.8,3.3-8     c2.1-2.1,4.9-3.3,7.9-3.3c0,0,0,0,0,0c6.2,0,11.2,5.1,11.2,11.3c0,3-1.2,5.8-3.3,8C366.6,292,363.8,293.2,360.8,293.2z      M352.4,281.9c0,4.7,3.8,8.4,8.4,8.4c0,0,0,0,0,0c2.2,0,4.3-0.9,5.9-2.5c1.6-1.6,2.5-3.7,2.5-6c0-4.7-3.8-8.4-8.4-8.4     c0,0,0,0,0,0c-2.2,0-4.3,0.9-5.9,2.5C353.2,277.5,352.4,279.7,352.4,281.9L352.4,281.9z"></path>		</g>		<g>			<path class="st1" d="M265.4,360.8c-3,0-5.8-1.2-7.9-3.3c-2.1-2.1-3.3-5-3.3-8c0-6.2,5-11.3,11.2-11.3c0,0,0,0,0,0     c3,0,5.8,1.2,7.9,3.3c2.1,2.1,3.3,5,3.3,8l0,0c0,0,0,0,0,0C276.6,355.8,271.6,360.8,265.4,360.8     C265.4,360.8,265.4,360.8,265.4,360.8z M265.4,341.1C265.4,341.1,265.4,341.1,265.4,341.1c-4.6,0-8.4,3.8-8.4,8.4     c0,2.3,0.9,4.4,2.5,6c1.6,1.6,3.7,2.5,5.9,2.5c0,0,0,0,0,0c4.6,0,8.4-3.8,8.4-8.4v0c0-2.3-0.9-4.4-2.5-6     C269.7,342,267.6,341.1,265.4,341.1z"></path>		</g>		<g>			<path class="st1" d="M326,360.8C326,360.8,326,360.8,326,360.8c-6.2,0-11.2-5.1-11.2-11.3c0-3,1.2-5.8,3.3-8     c2.1-2.1,4.9-3.3,7.9-3.3c0,0,0,0,0,0c6.2,0,11.2,5.1,11.2,11.3c0,3-1.2,5.8-3.3,8C331.8,359.6,329,360.8,326,360.8z      M317.6,349.5c0,4.7,3.8,8.4,8.4,8.4c0,0,0,0,0,0c2.2,0,4.3-0.9,5.9-2.5c1.6-1.6,2.5-3.7,2.5-6c0-4.7-3.8-8.4-8.4-8.4     c0,0,0,0,0,0c-2.2,0-4.3,0.9-5.9,2.5C318.5,345.2,317.6,347.3,317.6,349.5z"></path>		</g>		<g>			<path class="st1" d="M326,259.4C326,259.4,326,259.4,326,259.4c-6.2,0-11.2-5.1-11.2-11.3c0-3,1.2-5.8,3.3-8     c2.1-2.1,4.9-3.3,7.9-3.3c0,0,0,0,0,0c6.2,0,11.2,5.1,11.2,11.3c0,3-1.2,5.8-3.3,8C331.8,258.2,329,259.4,326,259.4z M326,239.7     c-2.2,0-4.3,0.9-5.9,2.5c-1.6,1.6-2.5,3.7-2.5,6c0,4.7,3.8,8.4,8.4,8.4c0,0,0,0,0,0c2.2,0,4.3-0.9,5.9-2.5c1.6-1.6,2.5-3.7,2.5-6     C334.4,243.4,330.6,239.7,326,239.7C326,239.7,326,239.7,326,239.7z"></path>		</g>		<g>			<path class="st1" d="M265.4,259.4C265.4,259.4,265.4,259.4,265.4,259.4c-6.2,0-11.2-5.1-11.2-11.3l0,0c0-3,1.2-5.8,3.3-8     c2.1-2.1,4.9-3.3,7.9-3.3c0,0,0,0,0,0c6.2,0,11.2,5.1,11.2,11.3c0,3-1.2,5.8-3.3,8C271.2,258.2,268.4,259.4,265.4,259.4z      M257,248.1c0,4.7,3.8,8.4,8.4,8.4c0,0,0,0,0,0c2.2,0,4.3-0.9,5.9-2.5c1.6-1.6,2.5-3.7,2.5-6c0-4.7-3.8-8.4-8.4-8.4c0,0,0,0,0,0     c-2.2,0-4.3,0.9-5.9,2.5C257.9,243.7,257,245.8,257,248.1L257,248.1z"></path>		</g>	</g></g></svg>