<svg xmlns="http://www.w3.org/2000/svg" xmlns:xlink="http://www.w3.org/1999/xlink" version="1.1" id="Layer_1" x="0px" y="0px" style="enable-background:new 0 0 600 600;" xml:space="preserve" viewBox="221.2 239.8 157.9 118"><style type="text/css">	.st0{fill:#32E4B6;}	.st1{fill:#FFFFFF;}</style><g>	<g>		<path class="st0" d="M372.4,342.3H227.9c-3.7,0-6.7-3-6.7-6.7v-89.1c0-3.7,3-6.7,6.7-6.7h144.5c3.7,0,6.7,3,6.7,6.7v89.1    C379.1,339.3,376.1,342.3,372.4,342.3z M227.9,242.7c-2.1,0-3.8,1.7-3.8,3.8v89.1c0,2.1,1.7,3.8,3.8,3.8h144.5    c2.1,0,3.8-1.7,3.8-3.8v-89.1c0-2.1-1.7-3.8-3.8-3.8H227.9z"></path>	</g>	<g>		<rect x="222.6" y="328.9" class="st0" width="155" height="2.8"></rect>	</g>	<g>		<g>			<rect x="288" y="340.8" class="st0" width="2.8" height="8.9"></rect>		</g>		<g>			<rect x="309.4" y="340.8" class="st0" width="2.8" height="8.9"></rect>		</g>	</g>	<g>		<path class="st0" d="M322.5,357.8h-44.8v-9.5h44.8V357.8z M280.6,355h39.1v-3.9h-39.1V355z"></path>	</g>	<g>		<g>			<polygon class="st1" points="243.9,317.2 241.9,315.2 271.8,285.3 285.7,299.2 314.6,270.3 328.5,284.2 356.4,256.4 358.4,258.4      328.5,288.2 314.6,274.3 285.7,303.2 271.8,289.3    "></polygon>		</g>		<g>			<polygon class="st1" points="358.8,268.7 356,268.7 356,258.8 346.1,258.8 346.1,255.9 358.8,255.9    "></polygon>		</g>	</g></g></svg>