<svg width="103" height="46" viewBox="0 0 103 46" fill="none" xmlns="http://www.w3.org/2000/svg">
<path d="M32.3804 20.7576C32.3717 18.0005 31.2725 15.3587 29.3229 13.4091C27.3733 11.4595 24.7316 10.3604 21.9744 10.3516H17.5567C17.9008 8.67611 18.0284 6.96336 17.9363 5.25537C17.9296 5.16744 17.8985 5.08313 17.8465 5.01189C17.7946 4.94064 17.7238 4.88529 17.6421 4.85203C17.5659 4.81736 17.4818 4.80349 17.3985 4.81182C17.3151 4.82016 17.2355 4.8504 17.1676 4.89949C15.2504 6.41977 13.6154 8.26522 12.3371 10.3516H10.2967C9.32176 6.67583 7.38972 3.32423 4.69748 0.638382C4.63514 0.579834 4.55813 0.539224 4.4746 0.520848C4.39107 0.502472 4.30413 0.507013 4.22297 0.533991C4.13878 0.558915 4.06316 0.606707 4.00452 0.67205C3.94588 0.737394 3.90652 0.817726 3.89081 0.904108C3.89081 0.999011 1.99277 10.3658 8.63592 17.8062C8.67533 20.9953 8.51686 24.1838 8.16141 27.3533C6.48314 24.3778 4.1216 21.8439 1.27152 19.9604C1.19562 19.9172 1.10976 19.8944 1.0224 19.8944C0.935034 19.8944 0.849175 19.9172 0.773279 19.9604C0.697994 20.005 0.635359 20.068 0.591338 20.1436C0.547316 20.2192 0.523374 20.3048 0.52179 20.3923C0.52179 20.4777 0.521789 28.8338 7.04156 34.7889C6.43325 38.1216 5.64119 41.4182 4.66901 44.6635C4.64557 44.7385 4.64022 44.8181 4.65342 44.8956C4.66662 44.9731 4.69797 45.0464 4.74493 45.1095C4.78944 45.1737 4.84911 45.2259 4.91865 45.2615C4.98818 45.2971 5.06542 45.315 5.14352 45.3135H22.0029C24.7592 45.3048 27.4002 44.2063 29.3497 42.2577C31.2992 40.3091 32.3989 37.6686 32.4089 34.9123C32.4142 32.2855 31.4181 29.7555 29.6235 27.8373C31.4173 25.9186 32.4132 23.3889 32.4089 20.7624" fill="#283539"/>
<path d="M21.9746 45.8213H5.11522C4.95724 45.82 4.80172 45.7821 4.66091 45.7104C4.5201 45.6388 4.39786 45.5354 4.30381 45.4085C4.21011 45.2804 4.1476 45.1322 4.12124 44.9757C4.09488 44.8192 4.1054 44.6586 4.15196 44.5069C5.09832 41.3707 5.87293 38.1851 6.47232 34.9645C-4.52528e-07 28.8718 0 20.4682 0 20.3828C0.00240856 20.206 0.0509565 20.0328 0.140841 19.8805C0.230726 19.7282 0.358832 19.602 0.512472 19.5145C0.666119 19.4258 0.840407 19.3791 1.01782 19.3791C1.19524 19.3791 1.36953 19.4258 1.52318 19.5145C4.01662 21.1624 6.1492 23.2998 7.79146 25.797C8.03986 23.2059 8.1539 20.6037 8.13311 18.0008C1.45675 10.4086 3.35479 0.894679 3.388 0.799777C3.42485 0.626033 3.50705 0.465143 3.62623 0.333459C3.74541 0.201776 3.89733 0.103994 4.06655 0.0500518C4.23488 -0.00512927 4.4148 -0.0148817 4.58811 0.0217797C4.76142 0.0584411 4.92197 0.140216 5.05353 0.258836C7.72133 2.91899 9.66505 6.21677 10.7002 9.8392H12.0478C13.3345 7.79095 14.9599 5.97622 16.8546 4.47249C16.9986 4.36858 17.1675 4.30463 17.3442 4.28713C17.5208 4.26963 17.699 4.2992 17.8606 4.37284C18.0226 4.44525 18.1625 4.55942 18.2659 4.70366C18.3692 4.84791 18.4324 5.01704 18.449 5.19374C18.5398 6.74293 18.4474 8.29743 18.1737 9.82496H21.9698C24.8643 9.82496 27.6403 10.9748 29.687 13.0215C31.7337 15.0682 32.8836 17.8442 32.8836 20.7387C32.8852 23.3328 31.9596 25.842 30.2738 27.8136C31.9603 29.7848 32.8861 32.2944 32.8836 34.8886C32.8836 37.7831 31.7337 40.5591 29.687 42.6058C27.6403 44.6525 24.8643 45.8023 21.9698 45.8023L21.9746 45.8213ZM1.01545 20.3923C1.01545 20.8668 1.21949 28.7627 7.36914 34.3856C7.4332 34.445 7.48116 34.5197 7.50854 34.6027C7.53592 34.6857 7.54184 34.7742 7.52573 34.8601C6.90895 38.2166 6.109 41.5368 5.12945 44.8059H21.9746C24.5973 44.8021 27.1116 43.7585 28.9662 41.904C30.8208 40.0494 31.8643 37.5351 31.8681 34.9123C31.8671 32.4207 30.9228 30.0218 29.2251 28.198C29.136 28.1037 29.0863 27.9789 29.0863 27.8492C29.0863 27.7195 29.136 27.5947 29.2251 27.5005C30.9258 25.6748 31.8704 23.2718 31.8681 20.7767C31.8706 18.1498 30.8298 15.6294 28.9746 13.7697C27.1193 11.91 24.6015 10.8632 21.9746 10.8594H17.5569C17.4817 10.8593 17.4074 10.8427 17.3393 10.8107C17.2713 10.7788 17.2111 10.7322 17.163 10.6743C17.116 10.6157 17.0823 10.5476 17.0643 10.4747C17.0462 10.4018 17.0443 10.3258 17.0586 10.252C17.3908 8.63261 17.5152 6.97747 17.4288 5.32661C15.5734 6.81541 13.989 8.61331 12.7453 10.6411C12.6994 10.7141 12.6357 10.7741 12.5601 10.8156C12.4846 10.8571 12.3997 10.8787 12.3135 10.8784H10.2969C10.1874 10.8747 10.0821 10.8358 9.99655 10.7674C9.91104 10.699 9.84993 10.6048 9.82236 10.4988C8.86311 6.92119 6.98333 3.65735 4.37024 1.03229C4.27534 1.5068 2.71894 10.4228 9.02044 17.4646C9.10502 17.5565 9.15238 17.6766 9.1533 17.8015C9.1822 21.0116 9.01581 24.2204 8.65507 27.4103C8.64384 27.5186 8.59813 27.6204 8.52465 27.7007C8.45118 27.781 8.35383 27.8356 8.24699 27.8564C8.1411 27.878 8.03109 27.8652 7.93295 27.82C7.83481 27.7748 7.75366 27.6994 7.7013 27.6049C6.06563 24.7189 3.77767 22.2554 1.0202 20.4113" fill="#283539"/>
<path d="M32.0391 20.7577C32.0366 18.0892 30.9754 15.5308 29.0885 13.6439C27.2017 11.757 24.6432 10.6958 21.9747 10.6933H17.1442C17.5493 8.92203 17.709 7.10344 17.6187 5.28865C17.6165 5.2618 17.6068 5.2361 17.5909 5.21434C17.575 5.19258 17.5535 5.17561 17.5286 5.16528C17.5049 5.15105 17.4779 5.14354 17.4503 5.14354C17.4227 5.14354 17.3956 5.15105 17.372 5.16528C15.432 6.70242 13.7832 8.57468 12.5035 10.6933H10.0313C9.09318 6.98477 7.17192 3.59798 4.47006 0.889942C4.44887 0.871661 4.42341 0.859031 4.39603 0.853224C4.36866 0.847417 4.34026 0.848622 4.31347 0.856727C4.28801 0.866966 4.26531 0.883031 4.24718 0.903632C4.22905 0.924234 4.216 0.948798 4.20908 0.975354C4.20908 1.07026 2.33951 10.3517 8.98265 17.6734C9.02242 21.2913 8.81314 24.9077 8.3563 28.497C6.70141 25.1572 4.19365 22.3139 1.0868 20.2547C1.06317 20.2405 1.0361 20.233 1.00851 20.233C0.98092 20.233 0.953853 20.2405 0.930214 20.2547C0.905996 20.2687 0.885828 20.2887 0.871686 20.3128C0.857544 20.337 0.849916 20.3644 0.849548 20.3923C0.849548 20.473 0.849546 28.7959 7.39779 34.6561C6.77627 38.0676 5.96518 41.4419 4.9683 44.7632C4.95705 44.7852 4.95118 44.8096 4.95118 44.8343C4.95118 44.8591 4.95705 44.8835 4.9683 44.9055C4.98279 44.9245 5.00144 44.94 5.02283 44.9507C5.04421 44.9614 5.06776 44.967 5.09167 44.9672H21.951C24.6187 44.9647 27.1764 43.9042 29.0631 42.0183C30.9499 40.1325 32.0116 37.5752 32.0154 34.9076C32.0174 32.256 30.968 29.7118 29.0971 27.8326C30.9662 25.9524 32.0153 23.4089 32.0154 20.7577" fill="#283539"/>
<path d="M21.9748 45.3088H5.11544C5.03734 45.3102 4.9601 45.2923 4.89057 45.2567C4.82104 45.2211 4.76137 45.1689 4.71686 45.1047C4.6699 45.0417 4.63854 44.9684 4.62534 44.8908C4.61215 44.8133 4.61749 44.7338 4.64093 44.6587C5.61382 41.4136 6.40589 38.117 7.01348 34.7841C0.512693 28.829 0.493713 20.4729 0.493713 20.3875C0.495298 20.3 0.51924 20.2145 0.563262 20.1389C0.607283 20.0633 0.669918 20.0002 0.745203 19.9557C0.821099 19.9124 0.906958 19.8897 0.994322 19.8897C1.08169 19.8897 1.16754 19.9124 1.24344 19.9557C4.09928 21.8387 6.46587 24.3745 8.14756 27.3533C8.5029 24.1838 8.66137 20.9953 8.62207 17.8062C1.97893 10.3658 3.83426 0.99901 3.87697 0.904108C3.89267 0.817726 3.93204 0.737394 3.99068 0.67205C4.04932 0.606707 4.12494 0.558915 4.20913 0.533991C4.29029 0.507013 4.37723 0.502472 4.46076 0.520848C4.54429 0.539224 4.6213 0.579834 4.68364 0.638382C7.38106 3.32257 9.3181 6.67431 10.2971 10.3516H12.3375C13.6115 8.26639 15.2417 6.42101 17.1538 4.89949C17.2216 4.8504 17.3013 4.82015 17.3846 4.81182C17.468 4.80349 17.552 4.81736 17.6283 4.85203C17.71 4.88529 17.7807 4.94064 17.8327 5.01189C17.8847 5.08313 17.9158 5.16744 17.9225 5.25537C18.0192 6.96275 17.8964 8.67549 17.5571 10.3516H21.9701C24.728 10.3591 27.371 11.4577 29.3216 13.4075C31.2722 15.3572 32.372 17.9996 32.3808 20.7576C32.3851 23.3842 31.3892 25.9139 29.5954 27.8326C31.39 29.7507 32.3861 32.2808 32.3808 34.9075C32.3708 37.6638 31.2711 40.3044 29.3216 42.2529C27.3721 44.2015 24.7311 45.3 21.9748 45.3088ZM5.36693 44.6255H21.9748C24.5518 44.623 27.0227 43.5985 28.8453 41.7767C30.668 39.9549 31.6937 37.4845 31.6975 34.9075C31.6998 33.6385 31.452 32.3815 30.9684 31.2083C30.4848 30.035 29.7748 28.9686 28.8789 28.0698C28.8163 28.0067 28.7812 27.9214 28.7812 27.8326C28.7812 27.7437 28.8163 27.6584 28.8789 27.5953C29.7744 26.6973 30.4843 25.6316 30.9679 24.4592C31.4515 23.2868 31.6994 22.0306 31.6975 20.7624C31.6963 18.1837 30.6716 15.7109 28.8487 13.8871C27.0257 12.0632 24.5535 11.0374 21.9748 11.0349H17.1443C17.0932 11.0348 17.0429 11.0232 16.9969 11.001C16.9509 10.9788 16.9105 10.9466 16.8786 10.9068C16.8462 10.8677 16.8233 10.8217 16.8118 10.7723C16.8003 10.7229 16.8004 10.6714 16.8121 10.6221C17.1682 8.99576 17.3275 7.33254 17.2866 5.66819C15.5191 7.15234 14.006 8.91547 12.8073 10.8878C12.7759 10.9374 12.7325 10.9783 12.681 11.0065C12.6295 11.0347 12.5718 11.0494 12.5131 11.0491H10.0409C9.96447 11.0484 9.89047 11.0223 9.8304 10.9751C9.77032 10.9279 9.72754 10.8622 9.7087 10.7882C8.80481 7.26279 7.00705 4.0301 4.48909 1.40234C4.23285 3.13431 3.44517 11.0776 9.23419 17.455C9.29176 17.5169 9.32394 17.5982 9.32435 17.6828C9.36417 21.3165 9.15489 24.9487 8.698 28.5538C8.68868 28.627 8.65591 28.6953 8.60459 28.7483C8.55327 28.8013 8.48616 28.8363 8.41329 28.848C8.34469 28.8561 8.27523 28.8437 8.21361 28.8125C8.152 28.7813 8.10097 28.7325 8.0669 28.6725C6.48431 25.5045 4.13155 22.7846 1.22446 20.7624C1.30987 22.3852 2.00266 29.3652 7.64933 34.4235C7.69217 34.4634 7.72421 34.5134 7.74246 34.569C7.76072 34.6246 7.76459 34.6839 7.75372 34.7414C7.14003 38.084 6.34805 41.3913 5.38117 44.6492" fill="#283539"/>
<path d="M12.3374 11.0063H10.1072C10.3934 12.2524 10.5524 13.5243 10.5817 14.8024C11.0264 13.479 11.6101 12.2066 12.3232 11.0063" fill="#81B971"/>
<path d="M21.9746 16.3351C23.1421 16.3364 24.2614 16.8007 25.0869 17.6262C25.9125 18.4518 26.3768 19.5711 26.3781 20.7386C26.3769 21.6665 26.0826 22.5703 25.5372 23.321C24.9919 24.0718 24.2233 24.631 23.3412 24.919C22.9003 25.0644 22.4389 25.1381 21.9746 25.1373H11.2317C11.3883 26.9879 11.5971 28.7815 11.8391 30.485H21.9746C22.4389 30.4841 22.9003 30.5578 23.3412 30.7033C24.2241 30.9915 24.9932 31.5515 25.5386 32.3032C26.0841 33.0548 26.3779 33.9597 26.3781 34.8885C26.3768 36.0555 25.9123 37.1743 25.0866 37.9991C24.261 38.8239 23.1417 39.2872 21.9746 39.2872H13.4761C14.1499 42.2196 14.7288 44.1746 14.8664 44.6349H21.9841C24.5687 44.6324 27.0468 43.6049 28.8748 41.7777C30.7028 39.9506 31.7315 37.473 31.7353 34.8885C31.7316 32.3161 30.7077 29.8502 28.8882 28.0318L28.6605 27.8135L28.8882 27.5905C30.707 25.7736 31.7309 23.3094 31.7353 20.7386C31.7277 18.1548 30.6961 15.6794 28.8664 13.8551C27.0367 12.0308 24.5584 11.0063 21.9746 11.0063H17.0824C16.6547 12.8678 15.9712 14.6611 15.0515 16.3351H21.9746Z" fill="#84C664"/>
<path d="M17.3054 5.61124C15.5647 7.05626 14.0683 8.77224 12.8734 10.6932L12.6789 11.0064C11.745 12.5544 11.0311 14.2249 10.5578 15.9698C10.5488 16.008 10.5257 16.0414 10.4932 16.0633C10.4606 16.0853 10.4211 16.0943 10.3823 16.0884C10.3441 16.0826 10.3095 16.0629 10.285 16.0332C10.2605 16.0034 10.2478 15.9656 10.2494 15.9271C10.3142 14.273 10.1546 12.6177 9.77489 11.0064C9.75116 10.902 9.72269 10.7976 9.69897 10.6932C8.79306 7.17426 6.99536 3.94819 4.47935 1.32642C4.22786 2.93975 3.34527 11.0207 9.26242 17.5072C9.27591 17.5201 9.28666 17.5355 9.294 17.5527C9.30134 17.5698 9.30512 17.5882 9.30512 17.6069C9.3471 21.4414 9.11558 25.2741 8.61234 29.0758C8.60684 29.109 8.59107 29.1397 8.56725 29.1635C8.54342 29.1874 8.51272 29.2031 8.47948 29.2086C8.44568 29.2146 8.41086 29.2089 8.3807 29.1925C8.35054 29.1762 8.32682 29.1501 8.3134 29.1185C6.73417 25.7228 4.27701 22.8102 1.19574 20.6817C1.26217 22.2049 1.89802 29.3273 7.69653 34.4804C7.71697 34.4985 7.73248 34.5215 7.74161 34.5473C7.75073 34.573 7.75319 34.6006 7.74873 34.6275C7.13873 38.0099 6.34673 41.3569 5.37618 44.6539H14.5864C14.4061 44.0466 13.8414 42.1106 13.2009 39.3062L13.1297 38.993C12.6219 36.7296 12.0668 33.93 11.616 30.8172C11.616 30.7128 11.5828 30.6084 11.5685 30.5041C11.3265 28.8006 11.094 27.0069 10.9659 25.1563L10.9374 24.8431C10.8473 23.6948 10.7761 22.5275 10.7334 21.346C10.7333 21.323 10.7379 21.3002 10.7469 21.279C10.7559 21.2578 10.769 21.2386 10.7856 21.2226C12.2876 19.9181 13.5694 18.3799 14.5817 16.6673C14.6434 16.5629 14.7051 16.4585 14.762 16.3542C15.6987 14.6783 16.3922 12.8777 16.8214 11.0064L16.8925 10.6932C17.2636 9.02591 17.423 7.31845 17.3671 5.61124" fill="#EBA129"/>
<path d="M32.0391 20.7577C32.0366 18.0892 30.9754 15.5308 29.0885 13.6439C27.2017 11.757 24.6432 10.6958 21.9747 10.6933H17.1442C17.5492 8.92361 17.7089 7.10662 17.6187 5.2934C17.6163 5.26601 17.6067 5.23974 17.5908 5.21725C17.575 5.19476 17.5535 5.17684 17.5286 5.16528C17.5049 5.15105 17.4779 5.14354 17.4503 5.14354C17.4227 5.14354 17.3956 5.15105 17.372 5.16528C15.4335 6.7039 13.7848 8.57589 12.5035 10.6933H10.0313C9.09318 6.98477 7.17192 3.59798 4.47006 0.889942C4.44887 0.871661 4.42341 0.859031 4.39603 0.853224C4.36866 0.847417 4.34026 0.848622 4.31347 0.856727C4.28801 0.866966 4.26531 0.883031 4.24718 0.903632C4.22905 0.924234 4.216 0.948798 4.20908 0.975354C4.20908 1.07026 2.33951 10.3517 8.98265 17.6734C9.02242 21.2913 8.81314 24.9077 8.3563 28.497C6.70141 25.1572 4.19365 22.3139 1.0868 20.2547C1.06317 20.2405 1.0361 20.233 1.00851 20.233C0.98092 20.233 0.953853 20.2405 0.930214 20.2547C0.905996 20.2687 0.885828 20.2887 0.871686 20.3128C0.857544 20.337 0.849916 20.3644 0.849548 20.3923C0.849548 20.473 0.849546 28.7959 7.39779 34.6561C6.77627 38.0676 5.96518 41.4419 4.9683 44.7632C4.95705 44.7852 4.95118 44.8096 4.95118 44.8343C4.95118 44.8591 4.95705 44.8835 4.9683 44.9055C4.98279 44.9245 5.00144 44.94 5.02283 44.9507C5.04421 44.9614 5.06776 44.967 5.09167 44.9672H21.951C24.6187 44.9647 27.1764 43.9042 29.0631 42.0183C30.9499 40.1325 32.0116 37.5752 32.0154 34.9076C32.0174 32.256 30.968 29.7118 29.0971 27.8326C30.9662 25.9524 32.0153 23.4089 32.0154 20.7577H32.0391ZM7.70148 34.6276C7.70593 34.6007 7.70348 34.5731 7.69435 34.5473C7.68522 34.5216 7.66972 34.4986 7.64928 34.4805C1.85077 29.3273 1.21492 22.2049 1.14849 20.6818C4.22976 22.8103 6.68692 25.7228 8.26614 29.1186C8.27956 29.1501 8.30329 29.1763 8.33345 29.1926C8.36361 29.209 8.39842 29.2147 8.43222 29.2087C8.46547 29.2032 8.49616 29.1875 8.51999 29.1636C8.54382 29.1398 8.55959 29.1091 8.56509 29.0759C9.06833 25.2742 9.29985 21.4415 9.25787 17.6069C9.25787 17.5883 9.25408 17.5699 9.24674 17.5527C9.2394 17.5356 9.22866 17.5201 9.21516 17.5073C3.32175 11.0207 4.21857 2.93983 4.47006 1.32649C6.98606 3.94827 8.78377 7.17433 9.68967 10.6933C9.7134 10.7977 9.74187 10.9021 9.7656 11.0065C10.1453 12.6178 10.3049 14.273 10.2401 15.9272C10.2385 15.9657 10.2512 16.0035 10.2757 16.0333C10.3002 16.063 10.3348 16.0827 10.373 16.0885C10.4118 16.0943 10.4514 16.0854 10.4839 16.0634C10.5164 16.0414 10.5395 16.0081 10.5485 15.9699C11.0213 14.2241 11.7369 12.5533 12.6743 11.0065C12.736 10.9021 12.7977 10.7977 12.8641 10.6933C14.0618 8.7716 15.5616 7.05558 17.3056 5.61132C17.3615 7.31853 17.2021 9.02599 16.8311 10.6933L16.7599 11.0065C16.332 12.8707 15.6418 14.6649 14.71 16.3353C14.6531 16.4396 14.5914 16.544 14.5297 16.6484C13.5174 18.361 12.2356 19.8992 10.7336 21.2037C10.717 21.2197 10.7039 21.2389 10.6949 21.2601C10.6859 21.2813 10.6813 21.3041 10.6814 21.3271C10.7241 22.5086 10.7953 23.6997 10.8854 24.8242L10.9139 25.1374C11.0658 26.988 11.2745 28.7817 11.5165 30.4852C11.5165 30.5895 11.5498 30.6939 11.564 30.7983C12.0385 33.9111 12.57 36.7107 13.0777 38.9741L13.1489 39.2873C13.7894 42.0917 14.3541 44.0324 14.5344 44.6351H5.32893C6.29948 41.338 7.09148 37.991 7.70148 34.6087V34.6276ZM12.3374 11.0065C11.6244 12.2067 11.0406 13.4792 10.596 14.8026C10.5667 13.5244 10.4077 12.2526 10.1215 11.0065H12.3374ZM31.7449 34.9076C31.7411 37.4922 30.7124 39.9697 28.8844 41.7969C27.0564 43.624 24.5783 44.6515 21.9937 44.654H14.8761C14.7385 44.1795 14.1596 42.2388 13.4858 39.3063H21.9842C23.1513 39.3063 24.2706 38.843 25.0963 38.0182C25.9219 37.1935 26.3864 36.0746 26.3877 34.9076C26.3875 33.9789 26.0937 33.074 25.5483 32.3223C25.0028 31.5706 24.2337 31.0106 23.3508 30.7224C22.9099 30.577 22.4485 30.5033 21.9842 30.5041H11.8629C11.6209 28.8006 11.3884 27.007 11.2556 25.1564H21.9985C22.4627 25.1573 22.9242 25.0836 23.3651 24.9381C24.2472 24.6502 25.0157 24.0909 25.5611 23.3402C26.1065 22.5894 26.4007 21.6856 26.4019 20.7577C26.4038 20.176 26.2905 19.5997 26.0687 19.062C25.8468 18.5243 25.5207 18.0358 25.1091 17.6247C24.6976 17.2136 24.2088 16.888 23.6708 16.6667C23.1329 16.4454 22.5564 16.3327 21.9747 16.3353H15.0516C15.9713 14.6613 16.6548 12.868 17.0825 11.0065H21.9795C24.5641 11.0103 27.0416 12.039 28.8688 13.867C30.6959 15.695 31.7234 18.1731 31.7259 20.7577C31.7207 23.3298 30.6971 25.7951 28.8789 27.6144L28.6511 27.8326L28.8789 28.0509C30.6984 29.8693 31.7223 32.3352 31.7259 34.9076" fill="#283539"/>
<path d="M51.0358 29.0654L51.2379 29.197C51.539 29.3772 51.8237 29.5833 52.0889 29.813C52.3514 30.0227 52.5696 30.2824 52.731 30.577C52.8925 30.8716 52.9938 31.1953 53.0292 31.5294C53.1694 32.4842 52.9608 33.4575 52.4415 34.2709C52.1071 34.8062 51.6411 35.2467 51.088 35.5505C50.5349 35.8543 49.9131 36.0111 49.2821 36.0061C47.5613 36.0061 45.8359 36.0061 44.1104 36.0061H44.0164C43.9318 36.0061 43.88 35.9826 43.8894 35.8885C43.8988 35.7945 43.8894 35.7945 43.8894 35.7475V23.0839C43.8894 22.8018 43.8424 22.8206 44.1527 22.8206C45.9863 22.8206 47.8199 22.8206 49.6535 22.8206C50.2104 22.7941 50.7613 22.9452 51.2268 23.2519C51.6924 23.5587 52.0486 24.0054 52.2441 24.5276C52.6046 25.3287 52.6696 26.2317 52.4274 27.0763C52.3437 27.3792 52.2085 27.6655 52.0278 27.9227C51.7744 28.3091 51.4691 28.6587 51.1204 28.9619C51.0781 28.9807 51.0358 28.9995 51.0358 29.0654ZM44.9896 26.8082V29.5121C44.9896 29.719 44.952 29.7378 45.22 29.7425C45.627 29.7512 46.034 29.7292 46.4377 29.6767C47.3457 29.5493 48.2298 29.2878 49.0611 28.9008C50.031 28.4532 50.813 27.6794 51.2708 26.7142C51.3634 26.5493 51.4195 26.3665 51.4354 26.1781C51.4849 25.589 51.3178 25.0021 50.9652 24.5276C50.8277 24.3316 50.6435 24.1731 50.4292 24.0663C50.2149 23.9596 49.9774 23.908 49.7381 23.9162C48.2478 23.9162 46.7621 23.9162 45.2717 23.9162H45.1071C45.0413 23.9162 45.0084 23.9162 45.0084 24.0103V26.8176L44.9896 26.8082ZM47.2463 34.9151H49.2445C49.6374 34.9202 50.0258 34.8315 50.3776 34.6565C50.8416 34.4477 51.2356 34.1095 51.5124 33.6825C51.7893 33.2555 51.9372 32.7578 51.9385 32.2489C51.9652 31.8929 51.9052 31.5358 51.7635 31.2082C51.6218 30.8805 51.4027 30.5922 51.1251 30.3679C50.7972 30.1137 50.4498 29.8857 50.0861 29.6861C50.0438 29.6529 49.9917 29.6349 49.938 29.6349C49.8843 29.6349 49.8321 29.6529 49.7899 29.6861C49.3085 29.963 48.7933 30.1764 48.2572 30.3209C47.2666 30.5935 46.2425 30.7249 45.2153 30.7112C44.9896 30.7112 44.9896 30.7112 44.9896 30.9181V34.7223C44.9896 34.9151 44.9896 34.9198 45.1824 34.9198L47.2463 34.9151Z" fill="#000"/>
<path d="M60.6355 33.8456L61.3871 34.5165C61.4398 34.5634 61.435 34.6009 61.3871 34.6525C61.0482 35.0974 60.6171 35.467 60.122 35.7371C59.627 36.0071 59.0792 36.1715 58.5148 36.2193C57.7929 36.296 57.0635 36.1742 56.4082 35.8677C55.753 35.5611 55.1977 35.0819 54.8047 34.4836C54.1417 33.5603 53.7835 32.4599 53.7783 31.3309C53.7732 30.2019 54.1214 29.0985 54.7759 28.1694C55.3917 27.2791 56.3353 26.657 57.4089 26.4336C58.1945 26.2656 59.0146 26.3529 59.7451 26.6823C60.3847 26.9433 60.9547 27.3446 61.4111 27.8553C61.8676 28.366 62.1984 28.9726 62.3781 29.6283C62.4841 29.9747 62.5167 30.3387 62.4738 30.6979C62.4466 30.9809 62.32 31.2459 62.1158 31.4478C61.9115 31.6496 61.6422 31.7759 61.3536 31.805C61.1951 31.8283 61.0351 31.8408 60.8749 31.8425H56.2073C56.1116 31.8425 56.0158 31.8425 55.9201 31.8425C55.7974 31.8587 55.6801 31.9018 55.5767 31.9686C55.4734 32.0354 55.3868 32.1242 55.3233 32.2283C55.2598 32.3325 55.2211 32.4493 55.21 32.5701C55.199 32.6909 55.2159 32.8126 55.2595 32.9262C55.4923 33.5101 55.8573 34.0346 56.327 34.4602C56.8563 34.9093 57.5371 35.1494 58.237 35.1338C58.9369 35.1181 59.6059 34.8479 60.1137 34.3757C60.2908 34.2115 60.4536 34.0333 60.6355 33.8456ZM54.9243 31.0309C55.4072 30.7648 55.9629 30.6533 56.5137 30.712H60.894C60.9737 30.7166 61.0537 30.7166 61.1334 30.712C61.3392 30.712 61.3823 30.651 61.3823 30.4539C61.3876 30.2505 61.3585 30.0476 61.2962 29.8535C61.1377 29.3388 60.8587 28.8676 60.4813 28.4775C60.1039 28.0873 59.6387 27.789 59.1228 27.6064C58.7577 27.4662 58.3639 27.4132 57.9738 27.4516C57.2755 27.5129 56.6222 27.8155 56.1307 28.3054C55.391 29.0392 54.9603 30.0189 54.9243 31.0497V31.0309Z" fill="#000"/>
<path d="M90.3035 22.8176H98.761C98.761 23.1517 98.761 23.4716 98.761 23.7916C98.761 23.8716 98.7276 23.9045 98.6466 23.9045H91.6472C91.3565 23.9045 91.3899 23.8763 91.3899 24.1492V29.0661C91.375 29.1327 91.375 29.2018 91.3899 29.2684H91.4375C91.8154 28.9758 92.2873 28.8272 92.7669 28.8496H97.2696C97.3411 28.8496 97.3935 28.8496 97.3982 28.9438C97.3982 29.2731 97.4411 29.6025 97.4602 29.9224C97.3736 29.9545 97.2801 29.9642 97.1886 29.9507C95.783 29.9507 94.3774 29.9507 92.9718 29.9507C92.7433 29.9295 92.5131 29.9684 92.3048 30.0634C92.0964 30.1584 91.9172 30.3062 91.7854 30.4917C91.6662 30.6564 91.4757 30.7882 91.3994 30.9623C91.3586 31.1689 91.3586 31.3814 91.3994 31.588C91.3994 32.9714 91.3994 34.35 91.3994 35.7286C91.3994 35.7851 91.3994 35.8368 91.3994 35.8933C91.3994 35.9497 91.3756 36.0062 91.2898 36.0062C90.9944 36.0062 90.7038 36.0062 90.4083 36.0062C90.3131 36.0062 90.2845 35.9638 90.2892 35.8792C90.294 35.7945 90.2892 35.7709 90.2892 35.7145C90.2892 31.5018 90.2892 27.2922 90.2892 23.0858C90.2769 22.9963 90.2818 22.9053 90.3035 22.8176Z" fill="#000"/>
<path d="M80.9004 26.5857C81.2512 26.5857 81.5875 26.5857 81.9239 26.5857C82.0584 26.5857 82.0777 26.6721 82.1113 26.7634C82.2555 27.1908 82.4044 27.6231 82.5486 28.0553L84.7974 34.6302C84.814 34.7067 84.8468 34.7788 84.8936 34.8415C84.9752 34.563 85.0569 34.294 85.1338 34.0251L87.1665 26.8835C87.1665 26.821 87.2049 26.7586 87.2193 26.701C87.224 26.6692 87.2404 26.6402 87.2653 26.6198C87.2902 26.5994 87.3217 26.589 87.3539 26.5905H88.3774C88.4056 26.6631 88.4056 26.7436 88.3774 26.8162L85.2636 37.7424C85.1863 38.0523 85.0374 38.3397 84.8287 38.5816C84.6201 38.8235 84.3575 39.0131 84.0622 39.1351C83.7956 39.2456 83.5099 39.3027 83.2213 39.3032H79.8576C79.6894 39.3032 79.6846 39.3032 79.6846 39.1303V38.3187C79.6846 38.1554 79.6846 38.1506 79.8624 38.1506L82.2651 38.1794C82.5486 38.1794 82.8369 38.1794 83.1252 38.1794C83.3641 38.2 83.6022 38.1328 83.7951 37.9905C83.9879 37.8481 84.1222 37.6404 84.1728 37.4062C84.2675 37.2254 84.317 37.0243 84.317 36.8202C84.317 36.6162 84.2675 36.4151 84.1728 36.2343L80.9724 26.821C80.935 26.7473 80.9106 26.6677 80.9004 26.5857Z" fill="#000"/>
<path d="M63.757 36.0061V35.7463C63.757 33.7811 63.757 31.8144 63.757 29.846C63.7624 29.5936 63.7514 29.3411 63.7243 29.0902C63.6786 28.7309 63.5135 28.3978 63.2561 28.1454C63.0126 27.9092 62.7457 27.706 62.4835 27.4935C62.432 27.4462 62.3758 27.4037 62.3197 27.3612C62.2635 27.3187 62.226 27.2667 62.2916 27.1911C62.4742 26.9738 62.6521 26.7565 62.8253 26.5345C62.8956 26.4447 62.9424 26.4636 63.0173 26.5345C63.3576 26.7839 63.6828 27.0536 63.9911 27.3423C64.0895 27.4415 64.1503 27.4368 64.2627 27.3423C64.8797 26.8826 65.5949 26.5751 66.3509 26.4447C67.0968 26.3044 67.8634 26.3205 68.603 26.492C69.2487 26.6454 69.8339 26.9908 70.283 27.4835C70.7321 27.9762 71.0243 28.5935 71.1219 29.2555C71.1793 29.5671 71.2076 29.8834 71.2062 30.2003C71.2062 32.0427 71.2062 33.8803 71.2062 35.7227V35.888C71.2062 35.9589 71.1781 35.9872 71.1125 35.9872H70.1761C70.1059 35.9872 70.0778 35.9589 70.0778 35.888C70.0778 35.8172 70.0778 35.7605 70.0778 35.6991C70.0778 33.8425 70.0778 31.986 70.0778 30.1295C70.0825 29.7738 70.0304 29.4197 69.9233 29.0807C69.8014 28.6586 69.5586 28.2823 69.2254 27.9991C68.8922 27.7158 68.4834 27.5383 68.0505 27.4887C67.492 27.3883 66.9192 27.4017 66.3659 27.5283C65.8127 27.6548 65.2902 27.892 64.8292 28.2257C64.6607 28.3438 64.6607 28.3438 64.7122 28.5422C64.797 28.8867 64.8379 29.2407 64.8339 29.5956V35.8975C64.8339 35.9589 64.8058 35.9872 64.7496 35.9872L63.757 36.0061Z" fill="#000"/>
<path d="M71.4416 27.2518L72.1274 26.4307C72.4919 26.7091 72.8517 26.9687 73.1778 27.266C73.3648 27.4359 73.3648 27.4359 73.5855 27.2896C74.208 26.8573 74.9208 26.5671 75.6718 26.4402C76.4202 26.3073 77.188 26.3218 77.9307 26.4826C78.5691 26.6213 79.1523 26.9404 79.609 27.4006C80.0657 27.8608 80.3758 28.4421 80.5015 29.0733C80.5887 29.4574 80.6305 29.8501 80.6262 30.2436V35.7459C80.6238 35.7852 80.6238 35.8246 80.6262 35.8639C80.6262 35.9535 80.5974 35.9913 80.5015 35.9913H79.6142C79.5183 35.9913 79.4895 35.9535 79.4943 35.8639C79.4991 35.7742 79.4943 35.7553 79.4943 35.6987V30.1728C79.5061 29.7859 79.4443 29.4002 79.312 29.0356C79.1787 28.6322 78.9308 28.2748 78.5977 28.0055C78.2645 27.7363 77.86 27.5664 77.432 27.5161C76.8595 27.4164 76.2726 27.4306 75.7059 27.5578C75.1391 27.6851 74.604 27.9228 74.1322 28.257C73.9548 28.3796 73.9596 28.3796 74.0123 28.5542C74.1057 28.9053 74.1493 29.2674 74.1418 29.6302V35.7884C74.1394 35.8277 74.1394 35.8671 74.1418 35.9064C74.1418 35.9724 74.113 36.0055 74.0411 36.0055H73.0819C73.0702 36.007 73.0582 36.0059 73.047 36.0022C73.0358 35.9985 73.0257 35.9922 73.0173 35.984C73.009 35.9758 73.0027 35.9658 72.9989 35.9548C72.9951 35.9438 72.994 35.932 72.9955 35.9205V35.7459C72.9955 33.7168 72.9955 31.6892 72.9955 29.6632C72.9955 29.5263 72.9955 29.3942 72.9955 29.2621C72.9819 29.0172 72.9144 28.7781 72.7976 28.5613C72.6808 28.3446 72.5176 28.1554 72.3193 28.0068C72.0859 27.8244 71.8509 27.6356 71.6143 27.4406C71.5429 27.3913 71.4839 27.3268 71.4416 27.2518Z" fill="#000"/>
<path d="M100.645 31.3103V35.7093C100.645 35.7668 100.645 35.8242 100.645 35.8769C100.645 35.9295 100.625 36.0061 100.544 36.0061C100.292 36.0061 100.045 36.0061 99.7936 36.0061C99.7206 36.0061 99.7003 35.9678 99.7044 35.8912V26.8729C99.7044 26.5426 99.6679 26.5905 99.9557 26.5857H100.422C100.673 26.5857 100.641 26.5857 100.645 26.8633V31.3103Z" fill="#000"/>
<path d="M100.632 22.9977C100.907 22.6325 101.213 22.2928 101.546 21.9826C101.588 21.8955 101.598 21.7958 101.574 21.7019C101.572 21.6785 101.572 21.655 101.574 21.6317C101.563 21.3602 101.534 21.0898 101.487 20.8224C101.46 20.6821 101.386 20.6634 101.281 20.7522L101.199 20.8364C100.781 21.2579 100.431 21.7442 100.162 22.2773C99.6147 23.3905 99.3835 24.6384 99.4944 25.8793C99.5373 25.83 99.563 25.7675 99.5675 25.7016C99.7247 24.7313 100.088 23.8083 100.632 22.9977Z" fill="#000"/>
<path d="M102.783 21.2006C102.734 21.227 102.687 21.2563 102.642 21.2884C102.326 21.4826 102.028 21.7078 101.754 21.9611C101.268 22.415 100.851 22.9426 100.518 23.5259C100.126 24.3208 99.856 25.1744 99.7185 26.0558C99.7185 26.1484 99.6668 26.2654 99.7514 26.3288C99.836 26.3922 99.9394 26.2995 100.019 26.2459C101.265 25.4522 102.211 24.2391 102.698 22.8093C102.857 22.3367 102.958 21.8454 102.999 21.3469C103.009 21.1714 102.929 21.1324 102.783 21.2006Z" fill="#000"/>
</svg>
